<svg xmlns="http://www.w3.org/2000/svg" width="24" height="24" viewBox="0 0 24 24">
  <g fill="none" fill-rule="evenodd">
    <rect width="24" height="24"/>
    <path fill="#FFF" d="M12,24 C5.372583,24 0,18.627417 0,12 C0,5.372583 5.372583,0 12,0 C18.627417,0 24,5.372583 24,12 C24,18.627417 18.627417,24 12,24 Z M12,22 C17.5228475,22 22,17.5228475 22,12 C22,6.4771525 17.5228475,2 12,2 C6.4771525,2 2,6.4771525 2,12 C2,17.5228475 6.4771525,22 12,22 Z M10,9.5 L13,9.5 L13,17.5 L14,17.5 L14,18 L10,18 L10,17.5 L11,17.5 L11,10 L10,10 L10,9.5 Z M11.75,8 C11.0596441,8 10.5,7.44035594 10.5,6.75 C10.5,6.05964406 11.0596441,5.5 11.75,5.5 C12.4403559,5.5 13,6.05964406 13,6.75 C13,7.44035594 12.4403559,8 11.75,8 Z"/>
  </g>
</svg>
