<svg xmlns="http://www.w3.org/2000/svg" width="26" height="26" viewBox="0 0 26 26">
  <path fill="#4B5564" fill-rule="evenodd" d="M13,26 C5.82029825,26 0,20.1797017 0,13 C0,5.82029825 5.82029825,0 13,0 C20.1797017,0 26,5.82029825 26,13 C26,20.1797017 20.1797017,26 13,26 Z M16.5181473,21.2478555 L16.5181473,21.4328393 C16.5181473,21.0136112 16.1818971,20.6806948 15.7671115,20.6806948 L13.6596526,20.6806948 L13.6596526,18.9216207 C15.8584947,18.9216212 18.2772209,16.2604937 18.2772209,14.5043148 L18.2772209,11.7517125 C18.2772209,11.341747 17.9404744,11.0057898 17.5250764,11.0057898 L17.7100602,11.0057898 C17.2908321,11.0057898 16.9579157,11.3379709 16.9579157,11.747737 L16.9579157,14.5043148 C16.9579157,15.82362 15.198842,17.5826941 13,17.5826937 C10.801158,17.5826933 9.04208431,15.82362 9.04208431,14.5043148 L9.04208431,11.7477369 C9.04208431,11.3412431 8.70533775,11.0057898 8.28993982,11.0057898 L8.47492358,11.0057898 C8.0556955,11.0057898 7.72277908,11.3400928 7.72277908,11.7524764 C7.72277908,11.7524764 7.72277908,13.191523 7.72277908,14.5043148 C7.72277908,16.2604937 10.1415053,18.9216211 12.3403474,18.9216207 L12.3403474,20.6806948 L10.2328885,20.6806948 C9.80975841,20.6806948 9.48185272,21.0174413 9.48185272,21.4328393 L9.48185272,21.2478555 C9.48185272,21.6670836 9.81898534,22 10.2348595,22 L15.7651405,22 C16.1787722,22 16.5181473,21.6632535 16.5181473,21.2478555 Z M10,7.49715203 L10,13.502848 C10,15.1583772 11.3431458,16.5 13,16.5 C14.6534829,16.5 16,15.1581293 16,13.502848 L16,7.49715203 C16,5.84162278 14.6568542,4.5 13,4.5 C11.3465171,4.5 10,5.84187067 10,7.49715203 Z"/>
</svg>
