<svg xmlns="http://www.w3.org/2000/svg" width="26" height="26" viewBox="0 0 26 26">
  <path fill="#0078DC" fill-rule="evenodd" d="M14,9.11492203 L17.4726009,12.6891306 C17.8700639,13.0982234 18.5135289,13.1050423 18.9063197,12.7007585 L18.7065313,12.9063926 C19.0965097,12.5050036 19.0992144,11.8465242 18.7062906,11.4421035 L13.7103695,6.30000252 C13.326053,5.90444103 12.6803903,5.89558181 12.2874664,6.30000252 L7.29154529,11.4421035 C6.90722884,11.837665 6.89851368,12.5021088 7.29130455,12.9063926 L7.09151617,12.7007585 C7.48149447,13.1021475 8.12620484,13.0998364 8.52523504,12.6891306 L12,9.11269461 L12,18.9975267 C12,19.544239 12.4477153,20 13,20 C13.5561352,20 14,19.5511774 14,18.9975267 L14,9.11492203 Z M13,26 C5.82029825,26 0,20.1797017 0,13 C0,5.82029825 5.82029825,0 13,0 C20.1797017,0 26,5.82029825 26,13 C26,20.1797017 20.1797017,26 13,26 Z"/>
</svg>
