<svg xmlns="http://www.w3.org/2000/svg" width="24" height="24" viewBox="0 0 24 24">
  <g fill="none" fill-rule="evenodd" transform="translate(1 5)">
    <path stroke="#4B5564" stroke-linecap="round" stroke-linejoin="round" d="M4.5,0.5 L17.5,0.5 L17.5,0.5 C18.6045695,0.5 19.5,1.3954305 19.5,2.5 L19.5,11.5 L19.5,11.5 C19.5,12.6045695 18.6045695,13.5 17.5,13.5 L4.5,13.5 L4.5,13.5 C3.3954305,13.5 2.5,12.6045695 2.5,11.5 L2.5,8.5 L0.5,8.5 L2.5,5.5 L2.5,2.5 L2.5,2.5 C2.5,1.3954305 3.3954305,0.5 4.5,0.5 Z"/>
    <circle cx="8" cy="7" r="1" fill="#4B5564"/>
    <circle cx="11" cy="7" r="1" fill="#4B5564"/>
    <circle cx="14" cy="7" r="1" fill="#4B5564"/>
  </g>
</svg>
