<svg xmlns="http://www.w3.org/2000/svg" width="24" height="24" viewBox="0 0 24 24">
  <path fill="none" stroke="#4B5564" stroke-linecap="round" stroke-linejoin="round" d="M5.19390683,2.73064999 L6.65512652,2 C6.65512652,2 7.75259137,3.09855861 8.48216782,4.55779168 C9.21174427,6.01702475 9.57859928,7.84623334 9.57859928,7.84623334 L8.1173796,9.30753332 C8.1173796,9.30753332 7.35370113,10.0061463 10.6595298,13.3121566 C13.9663919,16.618167 14.6939016,15.8854501 14.6939016,15.8854501 L16.1551213,14.4220832 C16.1551213,14.4220832 17.9893963,14.7930922 19.4433822,15.5196084 C20.8963348,16.2461246 22,17.3467501 22,17.3467501 L21.2693902,18.80805 C21.2693902,18.80805 20.0014152,20.0667936 19.3100744,20.482241 C18.6187335,20.8966549 17.6163409,21 17.6163409,21 C17.6163409,21 12.4566027,18.7636116 8.818021,15.1237966 C5.17943931,11.485015 3.0020773,6.38493337 3.0020773,6.38493337 C3.0020773,6.38493337 2.93180648,5.88267609 3.60867982,4.75518085 C4.28555315,3.62665216 5.19390683,2.73064999 5.19390683,2.73064999 Z"/>
</svg>
