<svg xmlns="http://www.w3.org/2000/svg" width="24" height="24" viewBox="0 0 24 24">
  <g fill="#FFF" fill-rule="evenodd" stroke="#B0BAC4" stroke-linecap="round" stroke-linejoin="round" transform="translate(1.5 .5)">
    <path d="M3,10.1301122 L6.99805493,10.1301122 C6.96737393,9.56135323 7.36296044,8.68155671 8.18481445,7.49072266 C9.06960821,6.20869139 10.6751638,5.29988838 11.5,3.96366989 C11.9798613,3.18630398 12.5432453,1.89809292 13.1901521,0.099036715 C13.9243197,-0.142161129 14.5605195,0.0572079418 15.0987513,0.697143928 C15.2792706,0.911774056 15.6147445,1.88665613 15.4587785,3.02046773 C15.3396222,3.88668782 14.8857396,5.78657467 14.0971307,8.72012826 L14.3804667,8.72012826 L19.1485517,8.72012826 C19.6596859,9.27785965 19.9406903,9.83559104 19.9915649,10.3933224 C20.0424395,10.9510538 19.8631844,11.5087852 19.4537995,12.0665166 C19.8631844,12.5827964 20.0424395,13.0990763 19.9915649,13.6153561 C19.9406903,14.1316359 19.6596859,14.6479158 19.1485517,15.1641956 C19.5042508,15.5738916 19.6298201,15.9835876 19.5252597,16.3932836 C19.4206993,16.8029795 19.0860091,17.2126755 18.5211892,17.6223715 C18.9260111,18.0186429 19.1007032,18.4149143 19.0452656,18.8111858 C18.989828,19.2074572 18.7042606,19.6037286 18.1885635,20 C13.157172,20 10.2308835,20 9.40969784,20 C8.17791936,20 5.99736133,19.2871767 5.25387818,19.295008 C4.75822275,19.3002289 4.00693002,19.3002289 3,19.295008 L3,10.1301122 Z"/>
    <path d="M0.875412409,9 L3.93643212,9 L3.93643212,9 C4.48871687,9 4.93643212,9.44771525 4.93643212,10 L4.93643212,19 L4.93643212,19 C4.93643212,19.5522847 4.48871687,20 3.93643212,20 L1.93614428,20 L1.93614428,20 C1.42913792,20 1.00236269,19.6205702 0.943018129,19.117049 L-0.117713738,10.117049 L-0.117713738,10.117049 C-0.182358088,9.56856052 0.209875033,9.0715182 0.758363459,9.00687385 C0.797211751,9.00229523 0.836295231,9 0.875412409,9 Z"/>
  </g>
</svg>
