<svg xmlns="http://www.w3.org/2000/svg" width="720" height="382" viewBox="0 0 720 382">
  <g fill="none" fill-rule="evenodd">
    <g stroke="#E5F5FE" stroke-linecap="round" stroke-linejoin="round" transform="translate(35 40)">
      <g stroke-width="5" transform="translate(0 1)">
        <path d="M79.1563169,0.0758928571 L569.004842,302.022061"/>
        <path d="M79.1563169,0.0758928571 L568.843683,301.924107" transform="matrix(-1 0 0 1 648 0)"/>
        <path d="M0.691648822,152.5 L645.308351,152.5"/>
      </g>
      <g transform="translate(0 1)">
        <path d="M645.308351 150.308036L569.004842 302.022061M645.308351 150.308036L568.843683.0758928571M.691648822 150.308036L569.004842 302.022061M.691648822 150.308036L568.843683.0758928571M79.1563169.0758928571L645.308351 150.308036M79.1563169.0758928571L.691648822 150.308036M.691648822 150.308036L79.1563169 301.924107M645.308351 150.308036L79.1563169 301.924107"/>
      </g>
      <g stroke-dasharray="2 4" transform="translate(78)">
        <path d="M.5 1L.5 303M1 .5L491 .5M1 302.5L491 302.5M490.5 1L490.5 303"/>
      </g>
    </g>
    <ellipse cx="114.923" cy="41.564" fill="#E5F5FE" rx="41.538" ry="41.564"/>
    <path fill="#FFF" d="M111,39 L118,39 L118,39 C124.075132,39 129,43.9248678 129,50 L129,65 L100,65 L100,50 L100,50 C100,43.9248678 104.924868,39 111,39 L111,39 Z M114.5,37 C108.70101,37 104,32.2989899 104,26.5 C104,20.7010101 108.70101,16 114.5,16 C120.29899,16 125,20.7010101 125,26.5 C125,32.2989899 120.29899,37 114.5,37 Z"/>
    <ellipse cx="605.077" cy="41.564" fill="#E5F5FE" rx="41.538" ry="41.564"/>
    <path fill="#FFF" d="M601.576923,39 L608.576923,39 L608.576923,39 C614.652055,39 619.576923,43.9248678 619.576923,50 L619.576923,65 L590.576923,65 L590.576923,50 L590.576923,50 C590.576923,43.9248678 595.501791,39 601.576923,39 L601.576923,39 Z M605.076923,37 C599.277933,37 594.576923,32.2989899 594.576923,26.5 C594.576923,20.7010101 599.277933,16 605.076923,16 C610.875913,16 615.576923,20.7010101 615.576923,26.5 C615.576923,32.2989899 610.875913,37 605.076923,37 Z"/>
    <ellipse cx="114.923" cy="339.436" fill="#E5F5FE" rx="41.538" ry="41.564"/>
    <path fill="#FFF" d="M111,338 L118,338 L118,338 C124.075132,338 129,342.924868 129,349 L129,364 L100,364 L100,349 L100,349 C100,342.924868 104.924868,338 111,338 L111,338 Z M114.5,336 C108.70101,336 104,331.29899 104,325.5 C104,319.70101 108.70101,315 114.5,315 C120.29899,315 125,319.70101 125,325.5 C125,331.29899 120.29899,336 114.5,336 Z"/>
    <ellipse cx="605.077" cy="339.436" fill="#E5F5FE" rx="41.538" ry="41.564"/>
    <path fill="#FFF" d="M602,338 L609,338 L609,338 C615.075132,338 620,342.924868 620,349 L620,364 L591,364 L591,349 L591,349 C591,342.924868 595.924868,338 602,338 L602,338 Z M605.5,336 C599.70101,336 595,331.29899 595,325.5 C595,319.70101 599.70101,315 605.5,315 C611.29899,315 616,319.70101 616,325.5 C616,331.29899 611.29899,336 605.5,336 Z"/>
    <ellipse cx="41.538" cy="191.193" fill="#E5F5FE" rx="41.538" ry="41.564"/>
    <path fill="#FFF" d="M38,189 L45,189 L45,189 C51.0751322,189 56,193.924868 56,200 L56,215 L27,215 L27,200 L27,200 C27,193.924868 31.9248678,189 38,189 L38,189 Z M41.5,187 C35.7010101,187 31,182.29899 31,176.5 C31,170.70101 35.7010101,166 41.5,166 C47.2989899,166 52,170.70101 52,176.5 C52,182.29899 47.2989899,187 41.5,187 Z"/>
    <ellipse cx="678.462" cy="191.193" fill="#E5F5FE" rx="41.538" ry="41.564"/>
    <path fill="#FFF" d="M675,189 L682,189 L682,189 C688.075132,189 693,193.924868 693,200 L693,215 L664,215 L664,200 L664,200 C664,193.924868 668.924868,189 675,189 L675,189 Z M678.5,187 C672.70101,187 668,182.29899 668,176.5 C668,170.70101 672.70101,166 678.5,166 C684.29899,166 689,170.70101 689,176.5 C689,182.29899 684.29899,187 678.5,187 Z"/>
    <ellipse cx="359.692" cy="190.5" fill="#E5F5FE" rx="183.883" ry="183.995"/>
    <ellipse cx="359.692" cy="190.5" fill="#FFF" rx="178.024" ry="178.132"/>
    <path fill="#E5F5FE" d="M349,185 L370,185 L370,185 C394.852814,185 415,205.147186 415,230 L415,284 L304,284 L304,230 C304,205.147186 324.147186,185 349,185 L349,185 Z M359,177 C336.90861,177 319,159.09139 319,137 C319,114.90861 336.90861,97 359,97 C381.09139,97 399,114.90861 399,137 C399,159.09139 381.09139,177 359,177 Z"/>
  </g>
</svg>
