<svg xmlns="http://www.w3.org/2000/svg" width="220" height="48" viewBox="0 0 220 48">
  <g fill="#FFF">
    <path d="M43.0880277 39.1268571L43.0880277 22.0304762C43.0880277 20.6811429 42.8687889 19.4438095 42.4379239 18.3512381 42.0268512 17.3089524 41.3889273 16.5577143 40.4868512 16.056381 39.5611765 15.5405714 38.4307266 15.2784762 37.1282353 15.2784762 35.5760554 15.2784762 34.2020069 15.592381 33.0441522 16.2118095 31.8878201 16.8289524 30.9278893 17.7188571 30.189481 18.856381L29.4746713 19.9565714 29.0613149 18.711619C28.8428374 18.056381 28.4804844 17.4415238 27.986436 16.8838095 27.5053287 16.3420952 26.8963322 15.9375238 26.176955 15.6822857 25.4233218 15.4148571 24.5730104 15.2784762 23.6480969 15.2784762 22.1202768 15.2784762 20.8010381 15.5992381 19.7246367 16.2331429 18.6375779 16.8731429 17.7400692 17.7394286 17.0579931 18.8068571L15.9260208 20.5767619 15.8575087 16.0198095 12.7173702 16.0198095 12.7173702 39.1268571 16.1026298 39.1268571 16.1026298 25.3859048C16.1026298 24.487619 16.2457439 23.6060952 16.5289273 22.7657143 16.8113495 21.9230476 17.2110035 21.1649524 17.7141869 20.5112381 18.2257439 19.8445714 18.8446367 19.3020952 19.5556401 18.8990476 20.2887197 18.4845714 21.0895502 18.2735238 21.9368166 18.2735238 23.5087889 18.2735238 24.6377163 18.7070476 25.2931488 19.5626667 25.9173702 20.3771429 26.2218685 21.5862857 26.2218685 23.2571429L26.2218685 39.1268571 29.5842907 39.1268571 29.5842907 25.3859048C29.5842907 24.487619 29.7616609 23.5009524 30.1133564 22.4525714 30.4802768 21.3622857 31.1486505 20.3893333 32.1017301 19.5619048 33.0875433 18.7070476 34.227128 18.2735238 35.4869896 18.2735238 37.0300346 18.2735238 38.1422145 18.7078095 38.7892734 19.5657143 39.4028374 20.3801905 39.7020069 21.5878095 39.7020069 23.2571429L39.7020069 39.1268571 43.0880277 39.1268571zM87.039308 16.0815238C86.066436 15.5497143 84.9032526 15.2784762 83.5847751 15.2784762 81.9785467 15.2784762 80.6052595 15.6007619 79.506782 16.2361905 78.3877509 16.8822857 77.4270588 17.7569524 76.6513495 18.8350476L75.5361246 20.3855238 75.4714187 16.0198095 72.3312803 16.0198095 72.3312803 39.1268571 75.7165398 39.1268571 75.7165398 25.3859048C75.7165398 24.4830476 75.9114187 23.4841905 76.2981315 22.416 76.6970242 21.3112381 77.3958478 20.3390476 78.3740484 19.5291429 79.379654 18.696381 80.557301 18.2735238 81.8750173 18.2735238 83.4439446 18.2735238 84.6215917 18.7024762 85.3759862 19.5497143 86.1105882 20.3748571 86.4843599 21.6228571 86.4843599 23.2571429L86.4843599 39.1268571 89.8688581 39.1268571 89.8688581 22.0304762C89.8688581 20.6918095 89.626782 19.4697143 89.149481 18.4 88.6851211 17.3630476 87.9946713 16.6041905 87.039308 16.0815238zM151.943114 34.304C152.228581 35.1352381 152.616055 35.9085714 153.090311 36.5988571 153.55391 37.2754286 154.132457 37.8605714 154.809204 38.3398095 155.488235 38.8205714 156.299723 39.2038095 157.222353 39.4758095 159.050865 40.0152381 161.65128 40.0693333 163.989827 39.3828571 165.090588 39.0598095 166.086298 38.4594286 166.946505 37.5984762 167.818131 36.7268571 168.50782 35.6121905 168.997301 34.2849524 169.345952 33.2807619 169.588028 32.1980952 169.713633 31.0780952 169.841522 29.9344762 169.906228 28.7580952 169.906228 27.584 169.906228 26.4114286 169.836955 25.2502857 169.702215 24.1302857 169.568235 23.024 169.342145 21.952 169.031557 20.9432381 168.749135 20.1089524 168.355571 19.3211429 167.868374 18.6171429 167.388028 17.9253333 166.795017 17.328 166.103806 16.8411429 165.408789 16.3512381 164.588166 15.9649524 163.664775 15.6921905 162.73301 15.4179048 161.661176 15.2777143 160.478201 15.2777143 159.250311 15.2777143 158.037647 15.4521905 156.876747 15.7965714 155.762284 16.1257143 154.765052 16.736 153.912457 17.6099048 153.050727 18.4937143 152.388443 19.6190476 151.943114 20.9561905 151.602837 21.9626667 151.364567 23.0255238 151.230588 24.119619 151.095848 25.2304762 151.025813 26.3961905 151.025813 27.584 151.025813 28.7580952 151.095848 29.9314286 151.231349 31.0750476 151.364567 32.1988571 151.602837 33.2860952 151.943114 34.304zM154.682837 24.2064762C154.804637 23.2601905 155.045952 22.2979048 155.39917 21.3470476 155.835363 20.1607619 156.528097 19.2899048 157.459862 18.760381 159.266298 17.7371429 161.766228 17.7546667 163.480554 18.7657143 164.378824 19.2967619 165.054048 20.1828571 165.487958 21.400381 165.780277 22.2735238 166.001799 23.1657143 166.152526 24.0662857 166.304775 24.9691429 166.3809 26.167619 166.3809 27.6312381 166.3809 29.0773333 166.308581 30.263619 166.165467 31.1565714 166.021592 32.0540952 165.793979 32.9470476 165.490242 33.8110476 165.031972 35.0072381 164.344567 35.880381 163.437163 36.423619 162.556401 36.9508571 161.544706 37.2190476 160.431765 37.2190476 159.318062 37.2190476 158.308651 36.9508571 157.433979 36.4220952 156.536471 35.8788571 155.852111 35.0072381 155.402215 33.8278095 155.127405 33.1314286 154.905882 32.2826667 154.744498 31.3097143 154.585398 30.3459048 154.505467 29.1093333 154.505467 27.6304762 154.504706 26.2834286 154.565606 25.1314286 154.682837 24.2064762zM176.245882 34.304C176.532111 35.1352381 176.918824 35.9085714 177.392318 36.5988571 177.856678 37.2754286 178.435225 37.8605714 179.111211 38.3398095 179.790242 38.8205714 180.602491 39.2038095 181.525882 39.4758095 183.353633 40.0152381 185.954048 40.0693333 188.291834 39.3828571 189.394118 39.0598095 190.389066 38.4594286 191.249273 37.5984762 192.120138 36.7268571 192.809827 35.6121905 193.300069 34.2849524 193.647958 33.2807619 193.890035 32.1980952 194.016401 31.0780952 194.143529 29.9344762 194.208997 28.7580952 194.208997 27.584 194.208997 26.4114286 194.139723 25.2502857 194.004983 24.1302857 193.871003 23.024 193.645675 21.952 193.334325 20.9432381 193.051903 20.1089524 192.657578 19.3211429 192.170381 18.6171429 191.690796 17.9253333 191.097024 17.328 190.406574 16.8411429 189.710796 16.3512381 188.890173 15.9649524 187.967543 15.6921905 187.035779 15.4179048 185.963183 15.2777143 184.780969 15.2777143 183.55308 15.2777143 182.340415 15.4521905 181.178754 15.7965714 180.064291 16.1257143 179.067059 16.736 178.214464 17.6099048 177.352734 18.4937143 176.691972 19.6190476 176.245882 20.9561905 175.906367 21.9626667 175.666574 23.0255238 175.532595 24.119619 175.397855 25.2304762 175.328581 26.3961905 175.328581 27.584 175.328581 28.7580952 175.397855 29.9314286 175.534118 31.0750476 175.667336 32.1988571 175.907128 33.2860952 176.245882 34.304zM178.986367 24.2064762C179.108166 23.2601905 179.350242 22.2979048 179.70346 21.3470476 180.138893 20.1607619 180.831626 19.2899048 181.764152 18.760381 183.568304 17.7371429 186.067474 17.7546667 187.783322 18.7657143 188.681592 19.2967619 189.356817 20.1828571 189.791488 21.400381 190.083045 22.2735238 190.305329 23.1657143 190.456055 24.0662857 190.607543 24.9691429 190.684429 26.167619 190.684429 27.6312381 190.684429 29.0773333 190.612111 30.263619 190.468997 31.1565714 190.325121 32.0540952 190.097509 32.9470476 189.79301 33.8110476 189.336263 35.0072381 188.647336 35.880381 187.741453 36.423619 186.858408 36.9508571 185.848235 37.2190476 184.734533 37.2190476 183.62083 37.2190476 182.61218 36.9508571 181.737509 36.4220952 180.838478 35.8788571 180.154879 35.0072381 179.704983 33.8278095 179.430173 33.1314286 179.207889 32.2826667 179.047266 31.3097143 178.888166 30.3459048 178.808997 29.1093333 178.808997 27.6304762 178.808997 26.2834286 178.868374 25.1314286 178.986367 24.2064762z"/>
    <path d="M49.9074584 48C50.8235345 48 52.0973455 47.999234 53.2681838 47.6568365 54.0225545 47.4362313 54.7883666 46.9054002 55.5366353 46.0559173 56.3161771 45.1711988 57.0568181 43.8199923 57.737201 42.0382995L67.7888667 15.6300268 64.5128078 15.6300268 57.6883843 33.7962466 51.1881343 15.6307928 47.7846943 15.6307928 55.968358 38.3623133 54.796757 41.4890846C54.4466497 42.4136346 53.9493294 43.2393719 53.3208143 43.9456147 52.6190741 44.7345845 51.6229081 45.1691233 50.3582502 45.1691233 50.2041725 45.1691233 43.9616548 45.1875071 43.8121537 45.1790812L2.85139512 45.1790812 2.85139512 2.82126752 112.669851 2.82126752 112.669851 6.04366143 112.673664 19.3757181 111.385579 17.8690157C110.715875 16.9819992 109.880652 16.2527767 108.903555 15.7004979 107.94629 15.1604749 106.712905 14.8862505 105.240013 14.8862505 103.655759 14.8862505 102.308722 15.1857526 101.233992 15.7747989 100.178331 16.3531214 99.32175 17.2700115 98.6901838 18.4986595 98.1341309 19.5120643 97.7527504 20.7276905 97.5490932 22.1271543 97.3378084 23.5718116 97.230259 25.2661815 97.230259 27.1658368 97.230259 30.3339717 97.552907 32.8364611 98.1890497 34.6051321 98.4514396 35.3787821 98.7984959 36.076599 99.2256421 36.690923 99.6482117 37.2998851 100.151634 37.8268863 100.720654 38.2581386 101.287385 38.6855611 101.945648 39.0248947 102.679424 39.2661815 103.414726 39.5074684 104.246136 39.6300268 105.146956 39.6300268 106.626713 39.6300268 107.903575 39.305247 108.939405 38.6656453 109.996591 38.0122558 110.858512 37.1819226 111.498468 36.1953275L112.779688 34.4557641 112.849099 38.8625048 115.711198 38.8625048 115.711198 6.04366143 115.711198 5.81233244 115.711198 0 2.84217094e-14 0 2.84217094e-14 48 49.9074584 48zM112.091133 32.8824205C111.803573 33.693604 111.390156 34.4029108 110.866902 34.9888931 110.33602 35.5825354 109.689199 36.0467254 108.943218 36.3699732 108.201815 36.689391 107.38566 36.8510149 106.514587 36.8510149 104.973047 36.8510149 103.741951 36.4013788 102.858673 35.5128303 102.007432 34.6579854 101.430784 33.4875527 101.143986 32.0344696 101.016605 31.4270394 100.919734 30.6380697 100.855663 29.6966679 100.792353 28.76599 100.761843 27.921869 100.761843 27.1643049 100.761843 24.8556109 100.905242 23.1689008 101.198142 22.0061279 101.348406 21.4500191 101.571132 20.8563769 101.864033 20.229031 102.192783 19.5220222 102.759514 18.9115282 103.548209 18.4128686 104.873888 17.5756415 106.715956 17.3282267 108.95466 18.1953275 109.919553 18.5683646 110.765455 19.309077 111.470246 20.3960169 112.168172 21.4737648 112.669851 22.7882038 112.669851 24.3033321 112.669851 26.9221554 112.669851 28.8862729 112.669851 30.1956845 112.669851 31.1819226 112.377932 32.080429 112.091133 32.8824205zM200.207612 2.16546358e-14L200.207612 38.8571429 203.252595 38.8571429 203.252595 3.04761905 216.955017 3.04761905 216.955017 44.9512765 130.17387 44.9512765 130.17387 35.188205 131.623201 36.6676623C131.945799 37.0916717 132.388804 37.5408471 132.941613 38.0022243 133.466403 38.443011 134.132804 38.7976232 134.919611 39.0569095 136.362973 39.5343014 138.466678 39.6761463 140.54615 38.9989514 141.440489 38.7083982 142.250771 38.1890629 142.957307 37.457723 143.674445 36.7141813 144.246943 35.7647358 144.6589 34.6345524 144.994372 33.7369642 145.245029 32.664739 145.407843 31.444568 145.572171 30.2038067 145.655471 28.7243494 145.655471 27.0450891 145.655471 25.1545868 145.547938 23.4753265 145.340446 22.0530647 145.135225 20.6658829 144.776277 19.4380859 144.270419 18.4062788 143.059539 15.994916 140.964164 14.8205014 137.864646 14.8205014 136.345556 14.8205014 135.055162 15.1308824 134.031329 15.7409679 132.997651 16.3571542 132.15102 17.1868705 131.518697 18.2072384L130.114803 19.9475072 129.943659 15.5625179 127.128028 15.5625179 127.128028 44.8367068 127.128028 47.7948588 127.128028 48 220 48 220 0 200.207612 2.16546358e-14zM130.666855 21.3529916C130.996269 20.5301389 131.763296 19.8285406 132.310047 19.2695497 132.8621 18.7036955 133.514869 18.2766356 134.249424 17.9975215 135.739737 17.4324299 137.413311 17.4575959 138.786247 18.0417527 139.52686 18.3559467 140.142523 18.8485908 140.615819 19.50367 141.066396 20.1290077 141.421557 20.9373709 141.669943 21.9058816 141.846388 22.6036669 141.972852 23.4021162 142.044036 24.2829271 142.115219 25.1454355 142.150811 26.0750532 142.150811 27.0450891 142.150811 27.8000699 142.115219 28.6427505 142.04555 29.5723682 141.973609 30.5012233 141.882737 31.2798449 141.772932 31.8853548 141.486683 33.3579486 140.908126 34.5285501 140.053165 35.3727559 139.16867 36.2467033 137.938101 36.6882527 136.393264 36.6882527 135.527701 36.6882527 134.71969 36.5273426 133.991194 36.2078104 133.257396 35.8867529 132.622801 35.4230879 132.103312 34.8297798 131.592153 34.245623 130.867532 33.5386864 130.588098 32.7310858 130.313965 31.9341616 130.174627 31.0419116 130.174627 30.0802644L130.174627 24.19599C130.17387 23.1313908 130.339713 22.1743192 130.666855 21.3529916z"/>
  </g>
</svg>
