<svg xmlns="http://www.w3.org/2000/svg" width="194" height="64" viewBox="0 0 194 64">
  <g fill="#00A0F5" fill-rule="evenodd">
    <path d="M5.88778071,54.128442 L5.12806707,54.128442 L2.97950193,58.3903819 L0.795325217,54.128442 L-4.79616347e-14,54.128442 L2.59964511,59.0092389 L2.59964511,62.1268771 L3.31187665,62.1268771 L3.31187665,58.9975624 L5.88778071,54.128442 Z M10.0899468,54 C12.0723246,54 13.4136939,55.4362154 13.4136939,58.1334978 C13.4136939,60.7607211 12.1079361,62.2553191 10.0899468,62.2553191 C8.13131004,62.2553191 6.77807012,60.8074272 6.77807012,58.1451744 C6.77807012,55.5062746 8.14318057,54 10.0899468,54 Z M10.0899468,54.5955039 C8.55864897,54.5955039 7.52591324,55.7164525 7.52591324,58.1451744 C7.52591324,60.5388667 8.58239002,61.6598152 10.0899468,61.6598152 C11.6805972,61.6598152 12.6658508,60.5388667 12.6658508,58.1334978 C12.6658508,55.7047759 11.6568562,54.5955039 10.0899468,54.5955039 Z M21.2719819,54.128442 L20.5478798,54.128442 L20.5478798,59.5697132 C20.5478798,60.8541334 19.9662241,61.6481387 18.6011136,61.6481387 C17.2360032,61.6481387 16.6424769,60.86581 16.6424769,59.5697132 L16.6424769,54.128442 L15.9302454,54.128442 L15.9302454,59.6280959 C15.9302454,61.1694002 16.7967937,62.2553191 18.6011136,62.2553191 C20.3816925,62.2553191 21.2719819,61.1694002 21.2719819,59.6280959 L21.2719819,54.128442 Z M28.750413,62.1268771 L26.6612005,58.542177 L25.0349385,58.542177 L25.0349385,62.1268771 L24.322707,62.1268771 L24.322707,54.128442 L26.2932142,54.128442 C28.251851,54.128442 29.1896225,54.8874176 29.1896225,56.3002799 C29.1896225,57.4912877 28.524873,58.1218213 27.3734321,58.413735 L29.6050909,62.1268771 L28.750413,62.1268771 Z M25.0349385,57.9700262 L26.3881784,57.9700262 C27.6820657,57.9700262 28.4299088,57.4679346 28.4299088,56.3002799 C28.4299088,55.237714 27.824512,54.7005929 26.2694732,54.7005929 L25.0349385,54.7005929 L25.0349385,57.9700262 Z M38.460503,54 C36.6561831,54 35.1723674,55.3895092 35.1723674,58.1218213 C35.1723674,60.8191038 36.5730894,62.2553191 38.4486324,62.2553191 C39.4576271,62.2553191 40.1698587,61.8816696 40.6446797,61.4262843 L40.2648229,60.9592224 C39.7900018,61.3328719 39.3151808,61.6364621 38.4723735,61.6364621 C37.0479104,61.6364621 35.9202105,60.5505432 35.9202105,58.1218213 C35.9202105,55.5763339 37.0953925,54.5955039 38.5079851,54.5955039 C39.1727345,54.5955039 39.6238145,54.7823287 40.1698587,55.2026844 L40.5497155,54.7356225 C39.9680597,54.2685606 39.4220155,54 38.460503,54 Z M45.3097962,54 C47.292174,54 48.6335434,55.4362154 48.6335434,58.1334978 C48.6335434,60.7607211 47.3277856,62.2553191 45.3097962,62.2553191 C43.3511595,62.2553191 41.9979196,60.8074272 41.9979196,58.1451744 C41.9979196,55.5062746 43.36303,54 45.3097962,54 Z M45.3097962,54.5955039 C43.7784984,54.5955039 42.7457627,55.7164525 42.7457627,58.1451744 C42.7457627,60.5388667 43.8022395,61.6598152 45.3097962,61.6598152 C46.9004467,61.6598152 47.8857003,60.5388667 47.8857003,58.1334978 C47.8857003,55.7047759 46.8767056,54.5955039 45.3097962,54.5955039 Z M51.9810316,54.128442 L51.2688001,54.128442 L51.2688001,62.1268771 L55.2810378,62.1268771 L55.376002,61.4963436 L51.9810316,61.4963436 L51.9810316,54.128442 Z M58.177446,54.128442 L57.4652145,54.128442 L57.4652145,62.1268771 L61.4774521,62.1268771 L61.5724163,61.4963436 L58.177446,61.4963436 L58.177446,54.128442 Z M68.1012054,62.1268771 L67.3889739,59.9433627 L63.9702625,59.9433627 L63.258031,62.1268771 L62.5339289,62.1268771 L65.2522793,54.128442 L66.1425687,54.128442 L68.8490485,62.1268771 L68.1012054,62.1268771 Z M64.1601909,59.3478588 L67.1990455,59.3478588 L65.6914887,54.7005929 L64.1601909,59.3478588 Z M74.167044,57.8882903 C75.1522976,57.9933793 76.042587,58.5305005 76.042587,59.9083331 C76.042587,61.4379608 74.9030166,62.1268771 73.1224377,62.1268771 L70.9026495,62.1268771 L70.9026495,54.128442 L72.7188399,54.128442 C74.5706419,54.128442 75.6627302,54.7706521 75.6627302,56.1251317 C75.6627302,57.1526679 75.0217218,57.7364952 74.167044,57.8882903 Z M72.790063,54.7122694 L71.614881,54.7122694 L71.614881,57.6430828 L73.2530135,57.6430828 C74.2382672,57.6430828 74.9386282,57.1059617 74.9386282,56.1718379 C74.9386282,55.0975955 74.1551735,54.7122694 72.790063,54.7122694 Z M73.1224377,61.5430497 C74.4400661,61.5430497 75.3066145,61.0993409 75.3066145,59.9083331 C75.3066145,58.6939721 74.4400661,58.2035571 73.3361072,58.2035571 L71.614881,58.2035571 L71.614881,61.5430497 L73.1224377,61.5430497 Z M81.3131004,54 C83.2954782,54 84.6368476,55.4362154 84.6368476,58.1334978 C84.6368476,60.7607211 83.3310898,62.2553191 81.3131004,62.2553191 C79.3544637,62.2553191 78.0012238,60.8074272 78.0012238,58.1451744 C78.0012238,55.5062746 79.3663342,54 81.3131004,54 Z M81.3131004,54.5955039 C79.7818026,54.5955039 78.7490669,55.7164525 78.7490669,58.1451744 C78.7490669,60.5388667 79.8055437,61.6598152 81.3131004,61.6598152 C82.9037508,61.6598152 83.8890045,60.5388667 83.8890045,58.1334978 C83.8890045,55.7047759 82.8800098,54.5955039 81.3131004,54.5955039 Z M91.6998103,62.1268771 L89.6105978,58.542177 L87.9843358,58.542177 L87.9843358,62.1268771 L87.2721043,62.1268771 L87.2721043,54.128442 L89.2426115,54.128442 C91.2012483,54.128442 92.1390198,54.8874176 92.1390198,56.3002799 C92.1390198,57.4912877 91.4742703,58.1218213 90.3228294,58.413735 L92.5544882,62.1268771 L91.6998103,62.1268771 Z M87.9843358,57.9700262 L89.3375757,57.9700262 C90.631463,57.9700262 91.3793061,57.4679346 91.3793061,56.3002799 C91.3793061,55.237714 90.7739093,54.7005929 89.2188705,54.7005929 L87.9843358,54.7005929 L87.9843358,57.9700262 Z M99.2494646,62.1268771 L98.5372331,59.9433627 L95.1185217,59.9433627 L94.4062902,62.1268771 L93.6821881,62.1268771 L96.4005385,54.128442 L97.2908279,54.128442 L99.9973077,62.1268771 L99.2494646,62.1268771 Z M95.3084501,59.3478588 L98.3473047,59.3478588 L96.8397479,54.7005929 L95.3084501,59.3478588 Z M105.896959,54.128442 L100.317812,54.128442 L100.317812,54.747299 L102.727529,54.747299 L102.727529,62.1268771 L103.42789,62.1268771 L103.42789,54.747299 L105.813865,54.747299 L105.896959,54.128442 Z M108.579698,54.128442 L107.867466,54.128442 L107.867466,62.1268771 L108.579698,62.1268771 L108.579698,54.128442 Z M114.526831,54 C116.509209,54 117.850578,55.4362154 117.850578,58.1334978 C117.850578,60.7607211 116.54482,62.2553191 114.526831,62.2553191 C112.568194,62.2553191 111.214954,60.8074272 111.214954,58.1451744 C111.214954,55.5062746 112.580065,54 114.526831,54 Z M114.526831,54.5955039 C112.995533,54.5955039 111.962798,55.7164525 111.962798,58.1451744 C111.962798,60.5388667 113.019274,61.6598152 114.526831,61.6598152 C116.117481,61.6598152 117.102735,60.5388667 117.102735,58.1334978 C117.102735,55.7047759 116.09374,54.5955039 114.526831,54.5955039 Z M125.839442,54.128442 L125.162822,54.128442 L125.162822,58.9858858 C125.162822,60.0250986 125.234045,61.0176051 125.257786,61.356225 L121.399865,54.128442 L120.485835,54.128442 L120.485835,62.1268771 L121.162455,62.1268771 L121.162455,57.6547594 C121.162455,56.218544 121.103102,55.4478919 121.067491,54.8990942 L124.90167,62.1268771 L125.839442,62.1268771 L125.839442,54.128442 Z M135.608885,54 C133.804565,54 132.320749,55.3895092 132.320749,58.1218213 C132.320749,60.8191038 133.721471,62.2553191 135.597014,62.2553191 C136.606009,62.2553191 137.31824,61.8816696 137.793061,61.4262843 L137.413204,60.9592224 C136.938383,61.3328719 136.463562,61.6364621 135.620755,61.6364621 C134.196292,61.6364621 133.068592,60.5505432 133.068592,58.1218213 C133.068592,55.5763339 134.243774,54.5955039 135.656367,54.5955039 C136.321116,54.5955039 136.772196,54.7823287 137.31824,55.2026844 L137.698097,54.7356225 C137.116441,54.2685606 136.570397,54 135.608885,54 Z M142.458178,54 C144.440556,54 145.781925,55.4362154 145.781925,58.1334978 C145.781925,60.7607211 144.476167,62.2553191 142.458178,62.2553191 C140.499541,62.2553191 139.146301,60.8074272 139.146301,58.1451744 C139.146301,55.5062746 140.511412,54 142.458178,54 Z M142.458178,54.5955039 C140.92688,54.5955039 139.894144,55.7164525 139.894144,58.1451744 C139.894144,60.5388667 140.950621,61.6598152 142.458178,61.6598152 C144.048828,61.6598152 145.034082,60.5388667 145.034082,58.1334978 C145.034082,55.7047759 144.025087,54.5955039 142.458178,54.5955039 Z M153.770789,54.128442 L153.094169,54.128442 L153.094169,58.9858858 C153.094169,60.0250986 153.165392,61.0176051 153.189133,61.356225 L149.331212,54.128442 L148.417182,54.128442 L148.417182,62.1268771 L149.093802,62.1268771 L149.093802,57.6547594 C149.093802,56.218544 149.034449,55.4478919 148.998837,54.8990942 L152.833017,62.1268771 L153.770789,62.1268771 L153.770789,54.128442 Z M159.694181,54 C157.889861,54 156.406045,55.3895092 156.406045,58.1218213 C156.406045,60.8191038 157.806767,62.2553191 159.68231,62.2553191 C160.691305,62.2553191 161.403537,61.8816696 161.878358,61.4262843 L161.498501,60.9592224 C161.02368,61.3328719 160.548859,61.6364621 159.706052,61.6364621 C158.281588,61.6364621 157.153889,60.5505432 157.153889,58.1218213 C157.153889,55.5763339 158.329071,54.5955039 159.741663,54.5955039 C160.406413,54.5955039 160.857493,54.7823287 161.403537,55.2026844 L161.783394,54.7356225 C161.201738,54.2685606 160.655694,54 159.694181,54 Z M164.715413,54.128442 L164.003182,54.128442 L164.003182,62.1268771 L164.715413,62.1268771 L164.715413,54.128442 Z M172.015787,54.128442 L167.884844,54.128442 L167.884844,62.1268771 L172.09888,62.1268771 L172.09888,61.5430497 L168.597075,61.5430497 L168.597075,58.2736164 L171.481613,58.2736164 L171.481613,57.689789 L168.597075,57.689789 L168.597075,54.7122694 L171.932693,54.7122694 L172.015787,54.128442 Z M178.924432,62.1268771 L176.83522,58.542177 L175.208958,58.542177 L175.208958,62.1268771 L174.496726,62.1268771 L174.496726,54.128442 L176.467234,54.128442 C178.42587,54.128442 179.363642,54.8874176 179.363642,56.3002799 C179.363642,57.4912877 178.698892,58.1218213 177.547452,58.413735 L179.77911,62.1268771 L178.924432,62.1268771 Z M175.208958,57.9700262 L176.562198,57.9700262 C177.856085,57.9700262 178.603928,57.4679346 178.603928,56.3002799 C178.603928,55.237714 177.998531,54.7005929 176.443493,54.7005929 L175.208958,54.7005929 L175.208958,57.9700262 Z M184.752861,54 C183.055375,54 181.381631,55.3544795 181.381631,58.0984682 C181.381631,60.86581 182.723001,62.2553191 184.705378,62.2553191 C185.631279,62.2553191 186.438475,62.0101116 187.150707,61.6014325 L187.150707,57.8182311 L184.776602,57.8182311 L184.859695,58.4020584 L186.450346,58.4020584 L186.450346,61.2394595 C185.939913,61.5196967 185.405739,61.6598152 184.74099,61.6598152 C183.138469,61.6598152 182.129474,60.5505432 182.129474,58.0984682 C182.129474,55.5646574 183.482714,54.5955039 184.764731,54.5955039 C185.500704,54.5955039 186.011136,54.7940052 186.580921,55.2260375 L187.00826,54.7940052 C186.343511,54.2685606 185.726244,54 184.752861,54 Z M193.916906,54.128442 L189.785963,54.128442 L189.785963,62.1268771 L194,62.1268771 L194,61.5430497 L190.498195,61.5430497 L190.498195,58.2736164 L193.382733,58.2736164 L193.382733,57.689789 L190.498195,57.689789 L190.498195,54.7122694 L193.833813,54.7122694 L193.916906,54.128442 Z"/>
    <path fill-rule="nonzero" d="M37.9958062 35.0511429L37.9958062 19.7356349C37.9958062 18.5268571 37.8024775 17.4184127 37.4225329 16.4396508 37.0600415 15.5059365 36.4975087 14.8329524 35.7020415 14.3838413 34.8857647 13.9217619 33.8889135 13.6869683 32.7403529 13.6869683 31.3716125 13.6869683 30.1599516 13.9681746 29.1389343 14.5230794 28.1192595 15.0759365 27.2727751 15.8731429 26.6216332 16.8921746L25.991301 17.8777619 25.6267958 16.7624921C25.4341384 16.1755079 25.114609 15.6246984 24.6789481 15.1250794 24.254699 14.6397937 23.7176747 14.2773651 23.0833149 14.0487143 22.4187474 13.8091429 21.6689273 13.6869683 20.8533218 13.6869683 19.5060623 13.6869683 18.3427336 13.9743175 17.3935433 14.5421905 16.434955 15.1155238 15.6435156 15.8915714 15.0420484 16.8478095L14.0438547 18.4333492 13.9834394 14.3510794 11.2144083 14.3510794 11.2144083 35.0511429 14.1995917 35.0511429 14.1995917 22.7415397C14.1995917 21.9368254 14.3257924 21.147127 14.5755087 20.3942857 14.8245536 19.6393968 15.1769758 18.9602698 15.620692 18.3746508 16.0717924 17.7774286 16.6175433 17.2914603 17.244519 16.9303968 17.8909619 16.5590952 18.5971488 16.3700317 19.3442837 16.3700317 20.7304775 16.3700317 21.7259862 16.7583968 22.3039585 17.5248889 22.8544083 18.2545238 23.1229204 19.3377143 23.1229204 20.8345238L23.1229204 35.0511429 26.0879654 35.0511429 26.0879654 22.7415397C26.0879654 21.9368254 26.2443737 21.0529365 26.5545052 20.1137619 26.8780623 19.1370476 27.4674464 18.2654444 28.3078893 17.5242063 29.1771972 16.7583968 30.1821038 16.3700317 31.2930727 16.3700317 32.6537578 16.3700317 33.6344983 16.7590794 34.2050865 17.527619 34.7461384 18.257254 35.0099516 19.3390794 35.0099516 20.8345238L35.0099516 35.0511429 37.9958062 35.0511429zM76.7528443 14.4063651C75.8949481 13.9299524 74.8692318 13.6869683 73.7065744 13.6869683 72.290173 13.6869683 71.0791834 13.9756825 70.110526 14.5449206 69.1237439 15.1237143 68.2765882 15.9072698 67.5925536 16.8730635L66.609128 18.2620317 66.5520692 14.3510794 63.7830381 14.3510794 63.7830381 35.0511429 66.7682215 35.0511429 66.7682215 22.7415397C66.7682215 21.9327302 66.9400692 21.0379206 67.2810796 20.081 67.6328304 19.0913175 68.2490657 18.2203968 69.1116609 17.4948571 69.9984221 16.7488413 71.0368927 16.3700317 72.1988789 16.3700317 73.5823875 16.3700317 74.6208581 16.7543016 75.2860969 17.5132857 75.9338824 18.2524762 76.263481 19.3704762 76.263481 20.8345238L76.263481 35.0511429 79.2479931 35.0511429 79.2479931 19.7356349C79.2479931 18.5364127 79.034526 17.441619 78.6136332 16.4833333 78.2041522 15.5543968 77.595301 14.8745873 76.7528443 14.4063651zM133.986201 30.7306667C134.237931 31.4753175 134.579612 32.1680952 134.99782 32.7864762 135.40663 33.3925714 135.916803 33.9167619 136.513571 34.3460794 137.112353 34.7767619 137.827938 35.1200794 138.641529 35.363746 140.253945 35.8469841 142.547038 35.8954444 144.609211 35.2804762 145.579882 34.9910794 146.457917 34.4532381 147.216464 33.6819683 147.98508 32.9011429 148.59326 31.9025873 149.024893 30.7136032 149.332339 29.8140159 149.545806 28.844127 149.656567 27.8407937 149.769343 26.8163016 149.826401 25.7624603 149.826401 24.7106667 149.826401 23.6602381 149.765315 22.6200476 149.646498 21.6167143 149.528353 20.6256667 149.328983 19.6653333 149.0551 18.7616508 148.806055 18.0142698 148.459003 17.3085238 148.029384 16.6778571 147.605806 16.0581111 147.082879 15.523 146.473356 15.0868571 145.860478 14.6479841 145.136837 14.3019365 144.322574 14.0575873 143.500927 13.811873 142.555765 13.6862857 141.512595 13.6862857 140.42982 13.6862857 139.360471 13.8425873 138.336768 14.1510952 137.354014 14.4459524 136.474637 14.9926667 135.722803 15.7755397 134.962913 16.5672857 134.3789 17.5753968 133.986201 18.773254 133.686138 19.6748889 133.476028 20.6270317 133.357882 21.6071587 133.239066 22.6023016 133.177308 23.6465873 133.177308 24.7106667 133.177308 25.7624603 133.239066 26.8135714 133.358554 27.8380635 133.476028 28.8448095 133.686138 29.8187937 133.986201 30.7306667zM136.402138 21.6849683C136.509543 20.837254 136.722339 19.9752063 137.033813 19.1233968 137.418457 18.0606825 138.029322 17.2805397 138.850969 16.8061746 140.443917 15.8895238 142.648401 15.9052222 144.160125 16.8109524 144.952235 17.2866825 145.547661 18.0804762 145.930291 19.1711746 146.188062 19.9533651 146.383405 20.752619 146.516318 21.559381 146.650574 22.3681905 146.717702 23.4418254 146.717702 24.7529841 146.717702 26.0484444 146.653931 27.1111587 146.52773 27.9110952 146.400858 28.715127 146.200145 29.5150635 145.932304 30.2890635 145.528194 31.3606508 144.922028 32.1428413 144.121862 32.6294921 143.34519 33.1018095 142.453059 33.3420635 141.471647 33.3420635 140.489564 33.3420635 139.599446 33.1018095 138.828145 32.628127 138.036706 32.1414762 137.433225 31.3606508 137.036498 30.3040794 136.794166 29.6802381 136.598824 28.9198889 136.456512 28.0482857 136.316215 27.184873 136.24573 26.0771111 136.24573 24.7523016 136.245059 23.5455714 136.298761 22.5135714 136.402138 21.6849683zM155.416824 30.7306667C155.669225 31.4753175 156.010235 32.1680952 156.427772 32.7864762 156.837253 33.3925714 157.347426 33.9167619 157.943522 34.3460794 158.542304 34.7767619 159.258561 35.1200794 160.072824 35.363746 161.684567 35.8469841 163.977661 35.8954444 166.039163 35.2804762 167.011176 34.9910794 167.88854 34.4532381 168.647087 33.6819683 169.415031 32.9011429 170.023211 31.9025873 170.455516 30.7136032 170.762291 29.8140159 170.975758 28.844127 171.08719 27.8407937 171.199294 26.8163016 171.257024 25.7624603 171.257024 24.7106667 171.257024 23.6602381 171.195938 22.6200476 171.077121 21.6167143 170.958976 20.6256667 170.760277 19.6653333 170.485723 18.7616508 170.236678 18.0142698 169.888955 17.3085238 169.459336 16.6778571 169.036429 16.0581111 168.51283 15.523 167.903979 15.0868571 167.290429 14.6479841 166.566789 14.3019365 165.753197 14.0575873 164.93155 13.811873 163.985716 13.6862857 162.943218 13.6862857 161.860443 13.6862857 160.791093 13.8425873 159.76672 14.1510952 158.783965 14.4459524 157.904588 14.9926667 157.152754 15.7755397 156.392865 16.5672857 155.810194 17.5753968 155.416824 18.773254 155.117433 19.6748889 154.905979 20.6270317 154.787834 21.6071587 154.669017 22.6023016 154.607931 23.6465873 154.607931 24.7106667 154.607931 25.7624603 154.669017 26.8135714 154.789176 27.8380635 154.906651 28.8448095 155.118104 29.8187937 155.416824 30.7306667zM157.833433 21.6849683C157.940837 20.837254 158.154304 19.9752063 158.465779 19.1233968 158.849751 18.0606825 159.460616 17.2805397 160.282934 16.8061746 161.873869 15.8895238 164.077682 15.9052222 165.590747 16.8109524 166.382858 17.2866825 166.978284 18.0804762 167.361585 19.1711746 167.618685 19.9533651 167.814699 20.752619 167.947612 21.559381 168.081197 22.3681905 168.148997 23.4418254 168.148997 24.7529841 168.148997 26.0484444 168.085225 27.1111587 167.959024 27.9110952 167.832152 28.715127 167.631439 29.5150635 167.362927 30.2890635 166.960159 31.3606508 166.352651 32.1428413 165.553827 32.6294921 164.775142 33.1018095 163.884353 33.3420635 162.90227 33.3420635 161.920187 33.3420635 161.03074 33.1018095 160.259439 32.628127 159.466657 32.1414762 158.863848 31.3606508 158.467121 30.3040794 158.224789 29.6802381 158.028775 28.9198889 157.887135 28.0482857 157.746837 27.184873 157.677024 26.0771111 157.677024 24.7523016 157.677024 23.5455714 157.729384 22.5135714 157.833433 21.6849683z"/>
    <path fill-rule="nonzero" d="M44.0093042 43C44.8171168 43 45.9403865 42.9993138 46.972853 42.6925827 47.6380708 42.4949572 48.3133778 42.019421 48.9732147 41.2584259 49.6606289 40.4658656 50.3137396 39.2554098 50.9137136 37.65931L59.7774552 14.001899 56.8885669 14.001899 50.8706662 30.2758043 45.1386275 14.0025852 42.1374122 14.0025852 49.3539157 34.366239 48.3207766 37.167305C48.0120456 37.9955477 47.5734996 38.7352706 47.0192635 39.3679465 46.4004562 40.0747319 45.522019 40.4640063 44.4068206 40.4640063 44.2709521 40.4640063 38.7661865 40.4804751 38.6343537 40.4729269L2.51441206 40.4729269 2.51441206 2.52738549 99.3543228 2.52738549 99.3543228 5.41411337 99.3576859 17.3574141 98.2218291 16.0076599C97.6312718 15.213041 96.8947566 14.5597791 96.0331347 14.0650294 95.1890009 13.5812588 94.1013798 13.3355994 92.8025572 13.3355994 91.4055325 13.3355994 90.2176916 13.6039034 89.2699748 14.1315907 88.3390734 14.6496713 87.583725 15.471052 87.0267984 16.5717158 86.5364609 17.4795576 86.2001526 18.5685561 86.020564 19.8222424 85.8342492 21.1164145 85.7394103 22.6342876 85.7394103 24.3360622 85.7394103 27.1741829 86.0239271 29.4159964 86.5848893 31.0004309 86.8162694 31.6934923 87.12231 32.3186199 87.4989753 32.8689519 87.8716049 33.4144804 88.3155318 33.8865856 88.8173038 34.2729159 89.317058 34.6558151 89.8975261 34.9598015 90.5445833 35.1759543 91.1929857 35.3921071 91.9261377 35.501899 92.720498 35.501899 94.0253742 35.501899 95.1513344 35.2109505 96.0647477 34.637974 96.9969943 34.0526459 97.7570511 33.3088057 98.3213764 32.4249809L99.4511796 30.866622 99.5123877 34.8143272 102.036238 34.8143272 102.036238 5.41411337 102.036238 5.20688114 102.036238 0 2.84217094e-14 0 2.84217094e-14 43 44.0093042 43zM98.8439995 29.4571684C98.590423 30.1838536 98.2258648 30.8192742 97.7644498 31.3442168 97.2963087 31.8760213 96.7259298 32.2918582 96.0681108 32.5814343 95.4143274 32.8675795 94.6946277 33.0123675 93.9264995 33.0123675 92.5671414 33.0123675 91.4815382 32.6095685 90.7026482 31.8135772 89.952008 31.0477786 89.4435099 29.9992659 89.190606 28.6975456 89.0782791 28.1533895 88.9928568 27.4466041 88.936357 26.603265 88.8805298 25.7695327 88.8536251 25.013341 88.8536251 24.3346898 88.8536251 22.2664847 88.980077 20.7554736 89.2383618 19.7138229 89.3708673 19.2156422 89.5672713 18.6838376 89.8255561 18.1218403 90.1154539 17.4884782 90.615208 16.9415773 91.3106936 16.4948615 92.4797012 15.7448455 94.1040703 15.5232031 96.0782 16.2999809 96.92906 16.63416 97.6749918 17.2977148 98.2964896 18.2714318 98.9119338 19.2369143 99.3543228 20.4144325 99.3543228 21.771735 99.3543228 24.1177642 99.3543228 25.8772861 99.3543228 27.0503007 99.3543228 27.9338057 99.0969033 28.7387176 98.8439995 29.4571684zM176.546713 1.93989445e-14L176.546713 34.8095238 179.231834 34.8095238 179.231834 2.73015873 191.314879 2.73015873 191.314879 40.2688519 114.789685 40.2688519 114.789685 31.522767 116.067732 32.8481141C116.352205 33.2279559 116.742854 33.6303422 117.230332 34.0436592 117.693101 34.4385307 118.280745 34.7562041 118.974566 34.9884815 120.247349 35.416145 122.102434 35.5432144 123.93615 34.9365606 124.724795 34.6762734 125.439317 34.2110356 126.062353 33.5558768 126.694738 32.8897874 127.199577 32.0392425 127.562848 31.0267866 127.858673 30.2226971 128.079708 29.262162 128.22328 28.1690922 128.368187 27.0575768 128.441643 25.7322297 128.441643 24.2278923 128.441643 22.5343173 128.346818 21.02998 128.163847 19.7558705 127.98288 18.5131867 127.666353 17.4132852 127.220278 16.4889581 126.152503 14.3287789 124.304763 13.2766992 121.571551 13.2766992 120.23199 13.2766992 119.094098 13.5547488 118.191263 14.1012837 117.279747 14.653284 116.533172 15.3965714 115.975578 16.3106511L114.737599 17.8696419 114.586681 13.9414223 112.103806 13.9414223 112.103806 40.1662165 112.103806 42.8162276 112.103806 43 194 43 194 0 176.546713 1.93989445e-14zM115.224408 19.1287217C115.514891 18.3915827 116.19127 17.7630676 116.673405 17.262305 117.160215 16.7553939 117.735839 16.3728194 118.383583 16.1227797 119.697768 15.6165517 121.173556 15.6390963 122.384236 16.1624035 123.037322 16.443869 123.580225 16.8851959 123.997586 17.4720377 124.394913 18.032236 124.708101 18.7563948 124.927131 19.6240189 125.082724 20.2491182 125.194242 20.9643958 125.257013 21.7534556 125.319784 22.5261193 125.35117 23.3589018 125.35117 24.2278923 125.35117 24.9042293 125.319784 25.6591306 125.258349 26.4919132 125.19491 27.3240126 125.114777 28.0215278 125.017949 28.5639636 124.765529 29.8831623 124.255348 30.9318261 123.501427 31.6880938 122.721463 32.4710051 121.636326 32.8665597 120.27406 32.8665597 119.510791 32.8665597 118.798272 32.7224111 118.155871 32.4361635 117.508795 32.1485495 116.949197 31.7331829 116.491102 31.2016777 116.040353 30.6783706 115.401369 30.0450732 115.154959 29.3215977 114.913224 28.6076864 114.790353 27.8083791 114.790353 26.9469035L114.790353 21.6755743C114.789685 20.7218709 114.935929 19.8644943 115.224408 19.1287217z"/>
  </g>
</svg>
