<svg xmlns="http://www.w3.org/2000/svg" width="279" height="88" viewBox="0 0 279 88">
  <g fill="none" fill-rule="evenodd">
    <path fill="#F0F1F3" d="M8.46747845,76.1847182 L7.37490058,76.1847182 L4.28495381,82.3140028 L1.14379245,76.1847182 L-4.79616347e-14,76.1847182 L3.73866488,83.2040085 L3.73866488,87.6876223 L4.76295663,87.6876223 L4.76295663,83.187216 L8.46747845,76.1847182 Z M14.5107997,76 C17.3617451,76 19.2908279,78.065485 19.2908279,81.9445665 C19.2908279,85.7228927 17.4129597,87.8723404 14.5107997,87.8723404 C11.6939974,87.8723404 9.74784311,85.7900629 9.74784311,81.9613591 C9.74784311,78.1662403 11.711069,76 14.5107997,76 Z M14.5107997,76.8564206 C12.3085725,76.8564206 10.8233494,78.4685064 10.8233494,81.9613591 C10.8233494,85.403834 12.3427155,87.0159198 14.5107997,87.0159198 C16.7983846,87.0159198 18.2153216,85.403834 18.2153216,81.9445665 C18.2153216,78.4517139 16.7642416,76.8564206 14.5107997,76.8564206 Z M30.5921802,76.1847182 L29.5508169,76.1847182 L29.5508169,84.0100515 C29.5508169,85.8572331 28.714312,86.9991273 26.7510861,86.9991273 C24.7878603,86.9991273 23.9342838,85.8740257 23.9342838,84.0100515 L23.9342838,76.1847182 L22.909992,76.1847182 L22.909992,84.0940143 C22.909992,86.3106323 24.1562137,87.8723404 26.7510861,87.8723404 C29.3118155,87.8723404 30.5921802,86.3106323 30.5921802,84.0940143 L30.5921802,76.1847182 Z M41.3472435,87.6876223 L38.3426544,82.5323061 L36.0038549,82.5323061 L36.0038549,87.6876223 L34.9795631,87.6876223 L34.9795631,76.1847182 L37.813437,76.1847182 C40.6302393,76.1847182 41.9788901,77.2762346 41.9788901,79.3081345 C41.9788901,81.0209757 41.0228844,81.9277739 39.3669461,82.347588 L42.5763936,87.6876223 L41.3472435,87.6876223 Z M36.0038549,81.7094706 L37.9500092,81.7094706 C39.8108059,81.7094706 40.8863122,80.9873905 40.8863122,79.3081345 C40.8863122,77.7800114 40.0156642,77.0075536 37.7792939,77.0075536 L36.0038549,77.0075536 L36.0038549,81.7094706 Z M55.3117543,76 C52.7168818,76 50.5829407,77.9983147 50.5829407,81.9277739 C50.5829407,85.8068555 52.5973811,87.8723404 55.2946827,87.8723404 C56.7457627,87.8723404 57.7700545,87.3349785 58.4529156,86.6800686 L57.9066267,86.0083662 C57.2237655,86.5457281 56.5409044,86.9823347 55.3288258,86.9823347 C53.2802423,86.9823347 51.658447,85.4206266 51.658447,81.9277739 C51.658447,78.2669957 53.3485284,76.8564206 55.3800404,76.8564206 C56.336046,76.8564206 56.9847641,77.1251016 57.7700545,77.7296338 L58.3163434,77.0579313 C57.4798385,76.3862289 56.6945481,76 55.3117543,76 Z M65.1620266,76 C68.0129719,76 69.9420547,78.065485 69.9420547,81.9445665 C69.9420547,85.7228927 68.0641865,87.8723404 65.1620266,87.8723404 C62.3452243,87.8723404 60.3990699,85.7900629 60.3990699,81.9613591 C60.3990699,78.1662403 62.3622958,76 65.1620266,76 Z M65.1620266,76.8564206 C62.9597993,76.8564206 61.4745763,78.4685064 61.4745763,81.9613591 C61.4745763,85.403834 62.9939424,87.0159198 65.1620266,87.0159198 C67.4496115,87.0159198 68.8665484,85.403834 68.8665484,81.9445665 C68.8665484,78.4517139 67.4154684,76.8564206 65.1620266,76.8564206 Z M74.7562259,76.1847182 L73.7319342,76.1847182 L73.7319342,87.6876223 L79.502111,87.6876223 L79.6386832,86.780824 L74.7562259,86.780824 L74.7562259,76.1847182 Z M83.6675641,76.1847182 L82.6432723,76.1847182 L82.6432723,87.6876223 L88.4134492,87.6876223 L88.5500214,86.780824 L83.6675641,86.780824 L83.6675641,76.1847182 Z M97.9393624,87.6876223 L96.9150707,84.5474134 L91.9984703,84.5474134 L90.9741785,87.6876223 L89.9328153,87.6876223 L93.8421954,76.1847182 L95.1225601,76.1847182 L99.0148688,87.6876223 L97.9393624,87.6876223 Z M92.2716148,83.6909928 L96.6419262,83.6909928 L94.473842,77.0075536 L92.2716148,83.6909928 Z M106.662914,81.5919227 C108.079851,81.7430558 109.360215,82.5155136 109.360215,84.4970357 C109.360215,86.6968612 107.721349,87.6876223 105.160619,87.6876223 L101.968243,87.6876223 L101.968243,76.1847182 L104.580187,76.1847182 C107.243346,76.1847182 108.813926,77.108309 108.813926,79.0562461 C108.813926,80.5339914 107.892064,81.3736194 106.662914,81.5919227 Z M104.682616,77.0243462 L102.992535,77.0243462 L102.992535,81.2392789 L105.348406,81.2392789 C106.765343,81.2392789 107.772563,80.4668212 107.772563,79.1234163 C107.772563,77.5785007 106.645842,77.0243462 104.682616,77.0243462 Z M105.160619,86.8479942 C107.055559,86.8479942 108.301781,86.2098769 108.301781,84.4970357 C108.301781,82.7506094 107.055559,82.0453219 105.467907,82.0453219 L102.992535,82.0453219 L102.992535,86.8479942 L105.160619,86.8479942 Z M116.939974,76 C119.79092,76 121.720002,78.065485 121.720002,81.9445665 C121.720002,85.7228927 119.842134,87.8723404 116.939974,87.8723404 C114.123172,87.8723404 112.177018,85.7900629 112.177018,81.9613591 C112.177018,78.1662403 114.140244,76 116.939974,76 Z M116.939974,76.8564206 C114.737747,76.8564206 113.252524,78.4685064 113.252524,81.9613591 C113.252524,85.403834 114.77189,87.0159198 116.939974,87.0159198 C119.227559,87.0159198 120.644496,85.403834 120.644496,81.9445665 C120.644496,78.4517139 119.193416,76.8564206 116.939974,76.8564206 Z M131.877562,87.6876223 L128.872973,82.5323061 L126.534174,82.5323061 L126.534174,87.6876223 L125.509882,87.6876223 L125.509882,76.1847182 L128.343756,76.1847182 C131.160558,76.1847182 132.509209,77.2762346 132.509209,79.3081345 C132.509209,81.0209757 131.553203,81.9277739 129.897265,82.347588 L133.106712,87.6876223 L131.877562,87.6876223 Z M126.534174,81.7094706 L128.480328,81.7094706 C130.341125,81.7094706 131.416631,80.9873905 131.416631,79.3081345 C131.416631,77.7800114 130.545983,77.0075536 128.309613,77.0075536 L126.534174,77.0075536 L126.534174,81.7094706 Z M142.735055,87.6876223 L141.710763,84.5474134 L136.794163,84.5474134 L135.769871,87.6876223 L134.728508,87.6876223 L138.637888,76.1847182 L139.918252,76.1847182 L143.810561,87.6876223 L142.735055,87.6876223 Z M137.067307,83.6909928 L141.437619,83.6909928 L139.269534,77.0075536 L137.067307,83.6909928 Z M152.295111,76.1847182 L144.271492,76.1847182 L144.271492,77.0747239 L147.737013,77.0747239 L147.737013,87.6876223 L148.744233,87.6876223 L148.744233,77.0747239 L152.17561,77.0747239 L152.295111,76.1847182 Z M156.153277,76.1847182 L155.128985,76.1847182 L155.128985,87.6876223 L156.153277,87.6876223 L156.153277,76.1847182 Z M164.706113,76 C167.557058,76 169.486141,78.065485 169.486141,81.9445665 C169.486141,85.7228927 167.608273,87.8723404 164.706113,87.8723404 C161.88931,87.8723404 159.943156,85.7900629 159.943156,81.9613591 C159.943156,78.1662403 161.906382,76 164.706113,76 Z M164.706113,76.8564206 C162.503885,76.8564206 161.018662,78.4685064 161.018662,81.9613591 C161.018662,85.403834 162.538029,87.0159198 164.706113,87.0159198 C166.993698,87.0159198 168.410635,85.403834 168.410635,81.9445665 C168.410635,78.4517139 166.959555,76.8564206 164.706113,76.8564206 Z M180.97528,76.1847182 L180.002203,76.1847182 L180.002203,83.1704234 C180.002203,84.6649613 180.104632,86.092329 180.138775,86.5793133 L174.590528,76.1847182 L173.27602,76.1847182 L173.27602,87.6876223 L174.249097,87.6876223 L174.249097,81.2560715 C174.249097,79.1905865 174.16374,78.0822775 174.112525,77.2930272 L179.626629,87.6876223 L180.97528,87.6876223 L180.97528,76.1847182 Z M195.025148,76 C192.430276,76 190.296335,77.9983147 190.296335,81.9277739 C190.296335,85.8068555 192.310775,87.8723404 195.008077,87.8723404 C196.459157,87.8723404 197.483449,87.3349785 198.16631,86.6800686 L197.620021,86.0083662 C196.93716,86.5457281 196.254298,86.9823347 195.04222,86.9823347 C192.993636,86.9823347 191.371841,85.4206266 191.371841,81.9277739 C191.371841,78.2669957 193.061923,76.8564206 195.093434,76.8564206 C196.04944,76.8564206 196.698158,77.1251016 197.483449,77.7296338 L198.029738,77.0579313 C197.193233,76.3862289 196.407942,76 195.025148,76 Z M204.875421,76 C207.726366,76 209.655449,78.065485 209.655449,81.9445665 C209.655449,85.7228927 207.777581,87.8723404 204.875421,87.8723404 C202.058618,87.8723404 200.112464,85.7900629 200.112464,81.9613591 C200.112464,78.1662403 202.07569,76 204.875421,76 Z M204.875421,76.8564206 C202.673193,76.8564206 201.18797,78.4685064 201.18797,81.9613591 C201.18797,85.403834 202.707336,87.0159198 204.875421,87.0159198 C207.163006,87.0159198 208.579942,85.403834 208.579942,81.9445665 C208.579942,78.4517139 207.128863,76.8564206 204.875421,76.8564206 Z M221.144588,76.1847182 L220.171511,76.1847182 L220.171511,83.1704234 C220.171511,84.6649613 220.27394,86.092329 220.308083,86.5793133 L214.759836,76.1847182 L213.445328,76.1847182 L213.445328,87.6876223 L214.418405,87.6876223 L214.418405,81.2560715 C214.418405,79.1905865 214.333048,78.0822775 214.281833,77.2930272 L219.795937,87.6876223 L221.144588,87.6876223 L221.144588,76.1847182 Z M229.663281,76 C227.068408,76 224.934467,77.9983147 224.934467,81.9277739 C224.934467,85.8068555 226.948908,87.8723404 229.646209,87.8723404 C231.097289,87.8723404 232.121581,87.3349785 232.804442,86.6800686 L232.258153,86.0083662 C231.575292,86.5457281 230.892431,86.9823347 229.680352,86.9823347 C227.631769,86.9823347 226.009974,85.4206266 226.009974,81.9277739 C226.009974,78.2669957 227.700055,76.8564206 229.731567,76.8564206 C230.687573,76.8564206 231.336291,77.1251016 232.121581,77.7296338 L232.66787,77.0579313 C231.831365,76.3862289 231.046075,76 229.663281,76 Z M236.884538,76.1847182 L235.860246,76.1847182 L235.860246,87.6876223 L236.884538,87.6876223 L236.884538,76.1847182 Z M247.383528,76.1847182 L241.442636,76.1847182 L241.442636,87.6876223 L247.503029,87.6876223 L247.503029,86.8479942 L242.466928,86.8479942 L242.466928,82.1460772 L246.615309,82.1460772 L246.615309,81.3064492 L242.466928,81.3064492 L242.466928,77.0243462 L247.264027,77.0243462 L247.383528,76.1847182 Z M257.319158,87.6876223 L254.314569,82.5323061 L251.975769,82.5323061 L251.975769,87.6876223 L250.951478,87.6876223 L250.951478,76.1847182 L253.785352,76.1847182 C256.602154,76.1847182 257.950805,77.2762346 257.950805,79.3081345 C257.950805,81.0209757 256.994799,81.9277739 255.338861,82.347588 L258.548308,87.6876223 L257.319158,87.6876223 Z M251.975769,81.7094706 L253.921924,81.7094706 C255.78272,81.7094706 256.858227,80.9873905 256.858227,79.3081345 C256.858227,77.7800114 255.987579,77.0075536 253.751208,77.0075536 L251.975769,77.0075536 L251.975769,81.7094706 Z M265.701279,76 C263.26005,76 260.852965,77.947937 260.852965,81.8941888 C260.852965,85.8740257 262.782047,87.8723404 265.632993,87.8723404 C266.964572,87.8723404 268.125436,87.5196967 269.149728,86.931957 L269.149728,81.4911674 L265.735422,81.4911674 L265.854923,82.3307954 L268.142507,82.3307954 L268.142507,86.4113876 C267.408432,86.8144091 266.640213,87.0159198 265.684207,87.0159198 C263.379551,87.0159198 261.928471,85.4206266 261.928471,81.8941888 C261.928471,78.2502031 263.874625,76.8564206 265.71835,76.8564206 C266.776785,76.8564206 267.510861,77.1418941 268.330294,77.7632189 L268.944869,77.1418941 C267.988864,76.3862289 267.101144,76 265.701279,76 Z M278.880499,76.1847182 L272.939607,76.1847182 L272.939607,87.6876223 L279,87.6876223 L279,86.8479942 L273.963899,86.8479942 L273.963899,82.1460772 L278.11228,82.1460772 L278.11228,81.3064492 L273.963899,81.3064492 L273.963899,77.0243462 L278.760999,77.0243462 L278.880499,76.1847182 Z"/>
    <g fill="#F1F2F4">
      <path fill-rule="nonzero" d="M54.6434533 49.7237143L54.6434533 27.9970635C54.6434533 26.2822857 54.3654187 24.7098413 53.8190035 23.3213651 53.2976886 21.9967937 52.4886851 21.0420952 51.3446886 20.4049841 50.1707647 19.7494762 48.7371488 19.4163968 47.0853529 19.4163968 45.1169066 19.4163968 43.3743633 19.8153175 41.9059931 20.6025079 40.4395536 21.3867937 39.2221869 22.5177143 38.2857509 23.9633175L37.3792422 25.3614762 36.8550311 23.7793492C36.5779619 22.9466508 36.1184325 22.1652698 35.4918893 21.4565079 34.8817578 20.7680794 34.1094394 20.2539365 33.1971384 19.9295714 32.2413945 19.5897143 31.163045 19.4163968 29.9900865 19.4163968 28.0525329 19.4163968 26.3794983 19.8240317 25.0144256 20.629619 23.6358374 21.4429524 22.4976332 22.5438571 21.6326367 23.900381L20.19709 26.1496349 20.1102042 20.3585079 16.1279377 20.3585079 16.1279377 49.7237143 20.4210623 49.7237143 20.4210623 32.261254C20.4210623 31.1196825 20.6025571 29.9994127 20.9616851 28.9314286 21.3198478 27.8605397 21.8266817 26.897127 22.4648097 26.0663651 23.1135571 25.2191429 23.8984256 24.529746 24.8001073 24.0175397 25.7297855 23.4908095 26.7453841 23.2226032 27.819872 23.2226032 29.8134187 23.2226032 31.2451038 23.7735397 32.0763114 24.8608889 32.8679377 25.8959524 33.2540969 27.4325714 33.2540969 29.5559524L33.2540969 49.7237143 37.5182595 49.7237143 37.5182595 32.261254C37.5182595 31.1196825 37.7431972 29.8657937 38.1892111 28.5334762 38.6545329 27.1479048 39.5021522 25.9114444 40.7108304 24.8599206 41.9610208 23.7735397 43.4062215 23.2226032 45.003955 23.2226032 46.9608166 23.2226032 48.371263 23.7745079 49.1918512 24.8647619 49.9699619 25.8998254 50.3493633 27.4345079 50.3493633 29.5559524L50.3493633 49.7237143 54.6434533 49.7237143zM110.381668 20.4369365C109.147889 19.7610952 107.672761 19.4163968 106.000692 19.4163968 103.963702 19.4163968 102.222125 19.8259683 100.829055 20.6334921 99.4099204 21.4545714 98.1915882 22.566127 97.2078478 23.9362063L95.7935398 25.9066032 95.711481 20.3585079 91.7292145 20.3585079 91.7292145 49.7237143 96.0223391 49.7237143 96.0223391 32.261254C96.0223391 31.113873 96.269481 29.8444921 96.7599031 28.487 97.2657716 27.0830317 98.1520069 25.8475397 99.3925433 24.8182857 100.667834 23.7599841 102.161304 23.2226032 103.832408 23.2226032 105.822093 23.2226032 107.315564 23.7677302 108.272273 24.8444286 109.203882 25.8930476 109.677893 27.4790476 109.677893 29.5559524L109.677893 49.7237143 113.970052 49.7237143 113.970052 27.9970635C113.970052 26.2958413 113.663055 24.7427619 113.057751 23.3833333 112.468858 22.0655397 111.593242 21.1011587 110.381668 20.4369365zM192.691495 43.5946667C193.053519 44.6510317 193.544907 45.6338095 194.146349 46.5110476 194.734277 47.3708571 195.467979 48.1144762 196.326218 48.7235079 197.187353 49.3344762 198.216467 49.8215079 199.386529 50.1671746 201.705415 50.8526984 205.003215 50.9214444 207.968917 50.0490476 209.364882 49.6385079 210.627623 48.8755238 211.718522 47.7813968 212.823903 46.6737143 213.698554 45.2571587 214.319304 43.5704603 214.761457 42.2943016 215.068453 40.9184127 215.227744 39.4950794 215.389931 38.0417302 215.47199 36.546746 215.47199 35.0546667 215.47199 33.5645238 215.384138 32.0889048 215.213263 30.6655714 215.043353 29.2596667 214.75663 27.8973333 214.362747 26.6153651 214.004585 25.555127 213.505474 24.5539524 212.887619 23.6592857 212.278453 22.7801111 211.526408 22.021 210.649827 21.4022857 209.768419 20.7796984 208.72772 20.2887937 207.556692 19.9421587 206.375045 19.5935873 205.015765 19.4154286 203.515536 19.4154286 201.958349 19.4154286 200.420471 19.6371587 198.948239 20.0748095 197.534896 20.4930952 196.270225 21.2686667 195.188979 22.379254 194.096149 23.5024286 193.256253 24.9325397 192.691495 26.6318254 192.259962 27.9108889 191.957792 29.2616032 191.787882 30.6520159 191.617007 32.0637302 191.52819 33.5451587 191.52819 35.0546667 191.52819 36.546746 191.617007 38.0378571 191.788848 39.4912063 191.957792 40.919381 192.259962 42.3010794 192.691495 43.5946667zM196.165962 30.7623968C196.320426 29.5598254 196.626457 28.3369206 197.074401 27.1285397 197.627574 25.6209683 198.506087 24.514254 199.687734 23.8413175 201.978623 22.5409524 205.14899 22.5632222 207.323066 23.8480952 208.462235 24.5229683 209.318543 25.6490476 209.86882 27.1963175 210.239533 28.3059365 210.520464 29.4397619 210.711612 30.5842381 210.904692 31.731619 211.001232 33.2546825 211.001232 35.1146984 211.001232 36.9524444 210.909519 38.4600159 210.728024 39.5948095 210.545564 40.7354127 210.25691 41.8702063 209.871716 42.9682063 209.290547 44.4883651 208.418792 45.5979841 207.268038 46.2883492 206.151073 46.958381 204.868059 47.2992063 203.456647 47.2992063 202.04427 47.2992063 200.764152 46.958381 199.65491 46.2864127 198.516706 45.5960476 197.648813 44.4883651 197.078263 42.9895079 196.729754 42.1045238 196.448824 41.0258889 196.244159 39.7894286 196.042391 38.5645873 195.941024 36.9931111 195.941024 35.1137302 195.940059 33.4018571 196.017291 31.9378571 196.165962 30.7623968zM223.511824 43.5946667C223.874813 44.6510317 224.365235 45.6338095 224.965713 46.5110476 225.554606 47.3708571 226.288308 48.1144762 227.145581 48.7235079 228.006716 49.3344762 229.036796 49.8215079 230.207824 50.1671746 232.525744 50.8526984 235.823543 50.9214444 238.78828 50.0490476 240.186176 49.6385079 241.447952 48.8755238 242.538851 47.7813968 243.643266 46.6737143 244.517917 45.2571587 245.139633 43.5704603 245.58082 42.2943016 245.887817 40.9184127 246.048073 39.4950794 246.209294 38.0417302 246.292318 36.546746 246.292318 35.0546667 246.292318 33.5645238 246.204467 32.0889048 246.033592 30.6655714 245.863682 29.2596667 245.577924 27.8973333 245.183076 26.6153651 244.824913 25.555127 244.324837 24.5539524 243.706983 23.6592857 243.098782 22.7801111 242.345772 22.021 241.470156 21.4022857 240.587782 20.7796984 239.547083 20.2887937 238.377021 19.9421587 237.195374 19.5935873 235.835128 19.4154286 234.335865 19.4154286 232.778678 19.4154286 231.240799 19.6371587 229.767602 20.0748095 228.35426 20.4930952 227.089588 21.2686667 226.008343 22.379254 224.915512 23.5024286 224.077547 24.9325397 223.511824 26.6318254 223.081256 27.9108889 222.777156 29.2616032 222.607246 30.6520159 222.43637 32.0637302 222.348519 33.5451587 222.348519 35.0546667 222.348519 36.546746 222.43637 38.0378571 222.609176 39.4912063 222.778121 40.919381 223.082221 42.3010794 223.511824 43.5946667zM226.987256 30.7623968C227.14172 29.5598254 227.448716 28.3369206 227.896661 27.1285397 228.448869 25.6209683 229.327381 24.514254 230.509993 23.8413175 232.797986 22.5409524 235.967388 22.5632222 238.143394 23.8480952 239.282564 24.5229683 240.138872 25.6490476 240.690114 27.1963175 241.059862 28.3059365 241.341758 29.4397619 241.532907 30.5842381 241.725021 31.731619 241.822526 33.2546825 241.822526 35.1146984 241.822526 36.9524444 241.730813 38.4600159 241.549318 39.5948095 241.366858 40.7354127 241.078204 41.8702063 240.692045 42.9682063 240.112806 44.4883651 239.239121 45.5979841 238.090298 46.2883492 236.970436 46.958381 235.689353 47.2992063 234.276976 47.2992063 232.864599 47.2992063 231.585446 46.958381 230.476204 46.2864127 229.336069 45.5960476 228.469142 44.4883651 227.898592 42.9895079 227.550083 42.1045238 227.268187 41.0258889 227.064488 39.7894286 226.86272 38.5645873 226.762318 36.9931111 226.762318 35.1137302 226.762318 33.4018571 226.837619 31.9378571 226.987256 30.7623968z"/>
      <path fill-rule="nonzero" d="M63.2917313 61C64.4534823 61 66.0689063 60.9990266 67.5537421 60.5638963 68.5104214 60.283544 69.4816104 59.6089461 70.4305511 58.5293949 71.4191519 57.4050651 72.3584193 55.6879069 73.2212686 53.4236723L85.9686082 19.8631591 81.8139699 19.8631591 73.1593601 42.9493968 64.9158612 19.8641325 60.5996805 19.8641325 70.9780541 48.7521065 69.4922509 52.7257117C69.0482512 53.9006607 68.4175587 54.9500351 67.6204872 55.847552 66.730553 56.8502011 65.4672334 57.4024276 63.8634173 57.4024276 63.6680187 57.4024276 55.7513714 57.4257903 55.5617767 57.4150824L3.61608745 57.4150824 3.61608745 3.58536081 142.885856 3.58536081 142.885856 7.6804864 142.890693 24.6233084 141.257167 22.7085408C140.40786 21.5812907 139.348645 20.6545704 138.109508 19.9527161 136.895522 19.2664369 135.331366 18.9179433 133.463471 18.9179433 131.454348 18.9179433 129.746062 19.2985606 128.383108 20.0471403 127.044338 20.7820918 125.958037 21.9473063 125.157097 23.5087131 124.451921 24.7965818 123.968261 26.3414401 123.709986 28.1199253 123.442039 29.9558439 123.305647 32.1091057 123.305647 34.523251 123.305647 38.5494223 123.714823 41.7296693 124.521568 43.9773554 124.854326 44.9605356 125.294456 45.8473446 125.836155 46.628048 126.37205 47.4019373 127.010481 48.0716679 127.732102 48.6197179 128.45082 49.1629005 129.285617 49.594137 130.216179 49.9007724 131.148675 50.2074078 132.203054 50.3631591 133.345458 50.3631591 135.222059 50.3631591 136.841352 49.9504181 138.154972 49.137591 139.495677 48.3072418 140.588749 47.2520267 141.40033 45.9982286L143.02515 43.7875335 143.113176 49.3877665 146.742837 49.3877665 146.742837 7.6804864 146.742837 7.38650581 146.742837 0 2.84217094e-14 0 2.84217094e-14 61 63.2917313 61zM142.151937 41.7880761C141.787258 42.8189551 141.262971 43.7203658 140.599389 44.4650517 139.926135 45.2194721 139.105848 45.8093802 138.159809 46.2201743 137.219574 46.6261011 136.184542 46.8314981 135.079863 46.8314981 133.124909 46.8314981 131.563655 46.2600855 130.443499 45.1308885 129.36397 44.0445232 128.632677 42.5570982 128.268964 40.7104717 128.107422 39.9385293 127.984572 38.9358803 127.903317 37.7395155 127.82303 36.556779 127.784337 35.4840419 127.784337 34.5213041 127.784337 31.5873388 127.966193 29.4438114 128.337644 27.9661209 128.528206 27.2593993 128.810663 26.5049789 129.182114 25.7077269 129.599029 24.8092366 130.317748 24.0334004 131.317956 23.3996872 132.999158 22.3357111 135.335235 22.0212881 138.174319 23.1232286 139.397978 23.5972967 140.470736 24.5386187 141.364539 25.9199381 142.249637 27.2895762 142.885856 28.9600089 142.885856 30.8854845 142.885856 34.2135725 142.885856 36.7096384 142.885856 38.3736824 142.885856 39.6270267 142.51565 40.7688785 142.151937 41.7880761zM253.899654 2.75194329e-14L253.899654 49.3809524 257.761246 49.3809524 257.761246 3.87301587 275.138408 3.87301587 275.138408 57.1255806 165.084135 57.1255806 165.084135 44.7183439 166.92215 46.5984875C167.331263 47.1373328 167.893074 47.7081599 168.594137 48.2944933 169.259666 48.8546598 170.104783 49.3053128 171.102597 49.6348225 172.933043 50.2415081 175.600923 50.4217692 178.238072 49.5611674 179.372257 49.1919227 180.399842 48.5319342 181.295858 47.602523 182.205319 46.6576054 182.931351 45.4510184 183.453787 44.0147437 183.879226 42.8740587 184.197105 41.5114391 184.403583 39.9608052 184.611981 38.3840043 184.71762 36.5038607 184.71762 34.3698008 184.71762 31.9672873 184.581249 29.8332274 184.318111 28.0257698 184.057853 26.2628928 183.602642 24.7025674 182.961122 23.3913126 181.425506 20.3268724 178.76819 18.8343872 174.837437 18.8343872 172.910955 18.8343872 171.274501 19.2288297 169.976095 20.0041467 168.665203 20.7872168 167.591521 21.8416479 166.78962 23.1383655L165.009227 25.3499571 164.792186 19.7773665 161.221453 19.7773665 161.221453 56.9799816 161.221453 60.7392997 161.221453 61 279 61 279 0 253.899654 2.75194329e-14zM165.709329 27.1360935C166.127086 26.0903848 167.099817 25.1987703 167.793197 24.4883861 168.493299 23.7692797 169.321129 23.2265578 170.252678 22.8718503 172.142667 22.1537129 174.265062 22.1856948 176.006195 22.9280608 176.945427 23.327349 177.7262 23.9534174 178.326425 24.785914 178.897839 25.5806139 179.348248 26.6079089 179.663246 27.8387245 179.88701 28.7254933 180.04739 29.7401894 180.137664 30.8595532 180.227937 31.9556576 180.273074 33.1370468 180.273074 34.3698008 180.273074 35.3292555 180.227937 36.4001621 180.139584 37.5815513 180.04835 38.7619713 179.933107 39.7514696 179.793855 40.5209717 179.430839 42.392393 178.697124 43.8800324 177.612877 44.9528773 176.491177 46.0635188 174.930592 46.6246544 172.971458 46.6246544 171.873766 46.6246544 170.849062 46.4201646 169.925196 46.0140923 168.994607 45.6060818 168.189825 45.0168409 167.531018 44.2628452 166.882775 43.5204792 165.963825 42.6220806 165.609452 41.5957548 165.261802 40.582997 165.085095 39.449096 165.085095 38.2270026L165.085095 30.7490706C165.084135 29.3961425 165.294454 28.179864 165.709329 27.1360935z"/>
    </g>
  </g>
</svg>
