<svg xmlns="http://www.w3.org/2000/svg" width="329" height="106" viewBox="0 0 329 106">
  <g fill="#FFF" fill-rule="evenodd">
    <path d="M9.9849477,92.2178218 L8.69656735,92.2178218 L5.05286668,99.4455446 L1.34877318,92.2178218 L-4.79616347e-14,92.2178218 L4.40867651,100.49505 L4.40867651,105.782178 L5.61653308,105.782178 L5.61653308,100.475248 L9.9849477,92.2178218 Z M17.1113015,92 C20.473169,92 22.7479655,94.4356436 22.7479655,99.009901 C22.7479655,103.465347 20.5335618,106 17.1113015,106 C13.7896959,106 11.4947684,103.544554 11.4947684,99.029703 C11.4947684,94.5544554 13.8098268,92 17.1113015,92 Z M17.1113015,93.009901 C14.5144098,93.009901 12.7630178,94.9108911 12.7630178,99.029703 C12.7630178,103.089109 14.5546717,104.990099 17.1113015,104.990099 C19.8088478,104.990099 21.4797161,103.089109 21.4797161,99.009901 C21.4797161,94.8910891 19.768586,93.009901 17.1113015,93.009901 Z M36.0746497,92.2178218 L34.8466622,92.2178218 L34.8466622,101.445545 C34.8466622,103.623762 33.860246,104.970297 31.5451876,104.970297 C29.2301291,104.970297 28.223582,103.643564 28.223582,101.445545 L28.223582,92.2178218 L27.0157254,92.2178218 L27.0157254,101.544554 C27.0157254,104.158416 28.4852842,106 31.5451876,106 C34.564829,106 36.0746497,104.158416 36.0746497,101.544554 L36.0746497,92.2178218 Z M48.7571438,105.782178 L45.2140978,99.7029703 L42.4561586,99.7029703 L42.4561586,105.782178 L41.248302,105.782178 L41.248302,92.2178218 L44.5900386,92.2178218 C47.9116442,92.2178218 49.5019886,93.5049505 49.5019886,95.9009901 C49.5019886,97.9207921 48.3746558,98.990099 46.4219544,99.4851485 L50.2065716,105.782178 L48.7571438,105.782178 Z M42.4561586,98.7326733 L44.7510861,98.7326733 C46.9453589,98.7326733 48.2136083,97.8811881 48.2136083,95.9009901 C48.2136083,94.0990099 47.1869302,93.1881188 44.5497767,93.1881188 L42.4561586,93.1881188 L42.4561586,98.7326733 Z M65.224255,92 C62.1643517,92 59.6479838,94.3564356 59.6479838,98.990099 C59.6479838,103.564356 62.0234351,106 65.2041241,106 C66.9152542,106 68.1231108,105.366337 68.9283485,104.594059 L68.2841584,103.80198 C67.4789207,104.435644 66.6736829,104.950495 65.244386,104.950495 C62.8286728,104.950495 60.9162332,103.108911 60.9162332,98.990099 C60.9162332,94.6732673 62.9091966,93.009901 65.3047788,93.009901 C66.4321116,93.009901 67.1970875,93.3267327 68.1231108,94.039604 L68.767301,93.2475248 C67.7808848,92.4554455 66.8548614,92 65.224255,92 Z M76.8398091,92 C80.2016766,92 82.4764731,94.4356436 82.4764731,99.009901 C82.4764731,103.465347 80.2620694,106 76.8398091,106 C73.5182035,106 71.223276,103.544554 71.223276,99.029703 C71.223276,94.5544554 73.5383345,92 76.8398091,92 Z M76.8398091,93.009901 C74.2429175,93.009901 72.4915254,94.9108911 72.4915254,99.029703 C72.4915254,103.089109 74.2831793,104.990099 76.8398091,104.990099 C79.5373555,104.990099 81.2082237,103.089109 81.2082237,99.009901 C81.2082237,94.8910891 79.4970936,93.009901 76.8398091,93.009901 Z M88.153399,92.2178218 L86.9455424,92.2178218 L86.9455424,105.782178 L93.7498012,105.782178 L93.9108487,104.712871 L88.153399,104.712871 L88.153399,92.2178218 Z M98.6617512,92.2178218 L97.4538946,92.2178218 L97.4538946,105.782178 L104.258153,105.782178 L104.419201,104.712871 L98.6617512,104.712871 L98.6617512,92.2178218 Z M115.491219,105.782178 L114.283363,102.079208 L108.485651,102.079208 L107.277795,105.782178 L106.049807,105.782178 L110.659793,92.2178218 L112.169614,92.2178218 L116.759469,105.782178 L115.491219,105.782178 Z M108.807746,101.069307 L113.961268,101.069307 L111.404638,93.1881188 L108.807746,101.069307 Z M125.778131,98.5940594 C127.449,98.7722772 128.95882,99.6831683 128.95882,102.019802 C128.95882,104.613861 127.02625,105.782178 124.006608,105.782178 L120.242122,105.782178 L120.242122,92.2178218 L123.322156,92.2178218 C126.462583,92.2178218 128.31463,93.3069307 128.31463,95.6039604 C128.31463,97.3465347 127.227559,98.3366337 125.778131,98.5940594 Z M123.442942,93.2079208 L121.449979,93.2079208 L121.449979,98.1782178 L124.228049,98.1782178 C125.898917,98.1782178 127.086643,97.2673267 127.086643,95.6831683 C127.086643,93.8613861 125.758,93.2079208 123.442942,93.2079208 Z M124.006608,104.792079 C126.241143,104.792079 127.710702,104.039604 127.710702,102.019802 C127.710702,99.960396 126.241143,99.1287129 124.368965,99.1287129 L121.449979,99.1287129 L121.449979,104.792079 L124.006608,104.792079 Z M137.896959,92 C141.258826,92 143.533623,94.4356436 143.533623,99.009901 C143.533623,103.465347 141.319219,106 137.896959,106 C134.575353,106 132.280426,103.544554 132.280426,99.029703 C132.280426,94.5544554 134.595484,92 137.896959,92 Z M137.896959,93.009901 C135.300067,93.009901 133.548675,94.9108911 133.548675,99.029703 C133.548675,103.089109 135.340329,104.990099 137.896959,104.990099 C140.594505,104.990099 142.265374,103.089109 142.265374,99.009901 C142.265374,94.8910891 140.554243,93.009901 137.896959,93.009901 Z M155.511534,105.782178 L151.968488,99.7029703 L149.210549,99.7029703 L149.210549,105.782178 L148.002692,105.782178 L148.002692,92.2178218 L151.344429,92.2178218 C154.666034,92.2178218 156.256379,93.5049505 156.256379,95.9009901 C156.256379,97.9207921 155.129046,98.990099 153.176345,99.4851485 L156.960962,105.782178 L155.511534,105.782178 Z M149.210549,98.7326733 L151.505476,98.7326733 C153.699749,98.7326733 154.967999,97.8811881 154.967999,95.9009901 C154.967999,94.0990099 153.94132,93.1881188 151.304167,93.1881188 L149.210549,93.1881188 L149.210549,98.7326733 Z M168.314814,105.782178 L167.106957,102.079208 L161.309246,102.079208 L160.101389,105.782178 L158.873401,105.782178 L163.483387,92.2178218 L164.993208,92.2178218 L169.583063,105.782178 L168.314814,105.782178 Z M161.631341,101.069307 L166.784862,101.069307 L164.228232,93.1881188 L161.631341,101.069307 Z M179.588142,92.2178218 L170.126599,92.2178218 L170.126599,93.2673267 L174.21318,93.2673267 L174.21318,105.782178 L175.400906,105.782178 L175.400906,93.2673267 L179.447225,93.2673267 L179.588142,92.2178218 Z M184.137735,92.2178218 L182.929878,92.2178218 L182.929878,105.782178 L184.137735,105.782178 L184.137735,92.2178218 Z M194.223337,92 C197.585205,92 199.860001,94.4356436 199.860001,99.009901 C199.860001,103.465347 197.645598,106 194.223337,106 C190.901732,106 188.606804,103.544554 188.606804,99.029703 C188.606804,94.5544554 190.921863,92 194.223337,92 Z M194.223337,93.009901 C191.626446,93.009901 189.875054,94.9108911 189.875054,99.029703 C189.875054,103.089109 191.666707,104.990099 194.223337,104.990099 C196.920884,104.990099 198.591752,103.089109 198.591752,99.009901 C198.591752,94.8910891 196.880622,93.009901 194.223337,93.009901 Z M213.408126,92.2178218 L212.260662,92.2178218 L212.260662,100.455446 C212.260662,102.217822 212.381448,103.90099 212.42171,104.475248 L205.879153,92.2178218 L204.329071,92.2178218 L204.329071,105.782178 L205.476534,105.782178 L205.476534,98.1980198 C205.476534,95.7623762 205.37588,94.4554455 205.315487,93.5247525 L211.817781,105.782178 L213.408126,105.782178 L213.408126,92.2178218 Z M229.975892,92 C226.915988,92 224.399621,94.3564356 224.399621,98.990099 C224.399621,103.564356 226.775072,106 229.955761,106 C231.666891,106 232.874748,105.366337 233.679985,104.594059 L233.035795,103.80198 C232.230557,104.435644 231.42532,104.950495 229.996023,104.950495 C227.58031,104.950495 225.66787,103.108911 225.66787,98.990099 C225.66787,94.6732673 227.660833,93.009901 230.056416,93.009901 C231.183748,93.009901 231.948724,93.3267327 232.874748,94.039604 L233.518938,93.2475248 C232.532522,92.4554455 231.606498,92 229.975892,92 Z M241.591446,92 C244.953313,92 247.22811,94.4356436 247.22811,99.009901 C247.22811,103.465347 245.013706,106 241.591446,106 C238.26984,106 235.974913,103.544554 235.974913,99.029703 C235.974913,94.5544554 238.289971,92 241.591446,92 Z M241.591446,93.009901 C238.994554,93.009901 237.243162,94.9108911 237.243162,99.029703 C237.243162,103.089109 239.034816,104.990099 241.591446,104.990099 C244.288992,104.990099 245.95986,103.089109 245.95986,99.009901 C245.95986,94.8910891 244.24873,93.009901 241.591446,93.009901 Z M260.776234,92.2178218 L259.628771,92.2178218 L259.628771,100.455446 C259.628771,102.217822 259.749556,103.90099 259.789818,104.475248 L253.247262,92.2178218 L251.697179,92.2178218 L251.697179,105.782178 L252.844643,105.782178 L252.844643,98.1980198 C252.844643,95.7623762 252.743988,94.4554455 252.683595,93.5247525 L259.18589,105.782178 L260.776234,105.782178 L260.776234,92.2178218 Z M270.821575,92 C267.761672,92 265.245304,94.3564356 265.245304,98.990099 C265.245304,103.564356 267.620755,106 270.801444,106 C272.512574,106 273.720431,105.366337 274.525668,104.594059 L273.881478,103.80198 C273.076241,104.435644 272.271003,104.950495 270.841706,104.950495 C268.425993,104.950495 266.513553,103.108911 266.513553,98.990099 C266.513553,94.6732673 268.506517,93.009901 270.902099,93.009901 C272.029432,93.009901 272.794407,93.3267327 273.720431,94.039604 L274.364621,93.2475248 C273.378205,92.4554455 272.452181,92 270.821575,92 Z M279.336964,92.2178218 L278.129107,92.2178218 L278.129107,105.782178 L279.336964,105.782178 L279.336964,92.2178218 Z M291.717494,92.2178218 L284.711926,92.2178218 L284.711926,105.782178 L291.85841,105.782178 L291.85841,104.792079 L285.919782,104.792079 L285.919782,99.2475248 L290.811601,99.2475248 L290.811601,98.2574257 L285.919782,98.2574257 L285.919782,93.2079208 L291.576577,93.2079208 L291.717494,92.2178218 Z M303.433703,105.782178 L299.890657,99.7029703 L297.132717,99.7029703 L297.132717,105.782178 L295.924861,105.782178 L295.924861,92.2178218 L299.266597,92.2178218 C302.588203,92.2178218 304.178547,93.5049505 304.178547,95.9009901 C304.178547,97.9207921 303.051215,98.990099 301.098513,99.4851485 L304.88313,105.782178 L303.433703,105.782178 Z M297.132717,98.7326733 L299.427645,98.7326733 C301.621918,98.7326733 302.890167,97.8811881 302.890167,95.9009901 C302.890167,94.0990099 301.863489,93.1881188 299.226335,93.1881188 L297.132717,93.1881188 L297.132717,98.7326733 Z M313.317995,92 C310.439271,92 307.600808,94.2970297 307.600808,98.950495 C307.600808,103.643564 309.875604,106 313.237472,106 C314.807685,106 316.176589,105.584158 317.384446,104.891089 L317.384446,98.4752475 L313.358257,98.4752475 L313.499174,99.4653465 L316.19672,99.4653465 L316.19672,104.277228 C315.33109,104.752475 314.425197,104.990099 313.297865,104.990099 C310.580187,104.990099 308.869057,103.108911 308.869057,98.950495 C308.869057,94.6534653 311.163985,93.009901 313.338126,93.009901 C314.586245,93.009901 315.451875,93.3465347 316.418161,94.0792079 L317.142875,93.3465347 C316.015542,92.4554455 314.968733,92 313.317995,92 Z M328.859083,92.2178218 L321.853515,92.2178218 L321.853515,105.782178 L329,105.782178 L329,104.792079 L323.061372,104.792079 L323.061372,99.2475248 L327.953191,99.2475248 L327.953191,98.2574257 L323.061372,98.2574257 L323.061372,93.2079208 L328.718167,93.2079208 L328.859083,92.2178218 Z"/>
    <g fill-rule="nonzero" transform="translate(.075)">
      <path d="M64.4361869 59.5054286L64.4361869 33.5046825C64.4361869 31.4525714 64.1083253 29.5707937 63.4639862 27.9091746 62.8492457 26.3240317 61.8952595 25.1815238 60.5462457 24.4190794 59.1619412 23.634619 57.4714048 23.2360159 55.5235882 23.2360159 53.2023737 23.2360159 51.1475467 23.7134127 49.4160277 24.6554603 47.6867855 25.5940317 46.2512526 26.9474286 45.1469965 28.6774127L44.0780311 30.350619 43.4598754 28.457254C43.1331522 27.460746 42.5912699 26.5256508 41.8524429 25.6774603 41.1329689 24.8536032 40.2222422 24.2383175 39.1464464 23.8501429 38.0194221 23.4434286 36.7478201 23.2360159 35.364654 23.2360159 33.0798685 23.2360159 31.1070069 23.7238413 29.4972976 24.6879048 27.8716505 25.6612381 26.5294671 26.9787143 25.5094533 28.6020952L23.8166401 31.2938254 23.7141834 24.3634603 19.0182491 24.3634603 19.0182491 59.5054286 24.0807509 59.5054286 24.0807509 38.6077302C24.0807509 37.2415873 24.2947716 35.9009365 24.7182595 34.6228571 25.140609 33.3413016 25.7382734 32.1883651 26.4907612 31.1941746 27.2557716 30.1802857 28.1812976 29.3552698 29.2445709 28.7423016 30.3408581 28.1119524 31.5384637 27.7909841 32.8055121 27.7909841 35.1563253 27.7909841 36.8445848 28.4503016 37.8247543 29.7515556 38.7582491 30.9902381 39.2136125 32.8291429 39.2136125 35.3702381L39.2136125 59.5054286 44.2419619 59.5054286 44.2419619 38.6077302C44.2419619 37.2415873 44.5072111 35.7410317 45.0331557 34.146619 45.5818685 32.4884762 46.581391 31.0087778 48.0066782 29.7503968 49.480917 28.4503016 51.1851142 27.7909841 53.0691799 27.7909841 55.3767336 27.7909841 57.0399481 28.4514603 58.0075952 29.7561905 58.9251522 30.994873 59.3725467 32.8314603 59.3725467 35.3702381L59.3725467 59.5054286 64.4361869 59.5054286zM130.163329 24.4573175C128.708443 23.6485238 126.968955 23.2360159 124.997232 23.2360159 122.59519 23.2360159 120.541502 23.7261587 118.898779 24.6925397 117.225318 25.6751429 115.788647 27.0053651 114.628609 28.6449683L112.960841 31.0029841 112.864076 24.3634603 108.168142 24.3634603 108.168142 59.5054286 113.230644 59.5054286 113.230644 38.6077302C113.230644 37.2346349 113.522076 35.7155397 114.100388 34.091 114.696913 32.4108413 115.741972 30.9323016 117.204827 29.7005714 118.708664 28.4340794 120.469782 27.7909841 122.440367 27.7909841 124.786626 27.7909841 126.547744 28.4433492 127.675907 29.7318571 128.774471 30.9867619 129.333429 32.8847619 129.333429 35.3702381L129.333429 59.5054286 134.394792 59.5054286 134.394792 33.5046825C134.394792 31.4687937 134.032779 29.6101905 133.318997 27.9833333 132.624567 26.4063016 131.592031 25.2522063 130.163329 24.4573175zM227.224021 52.1706667C227.650924 53.4348413 228.230374 54.6109524 228.939602 55.6607619 229.632893 56.6897143 230.498083 57.579619 231.510128 58.3084603 232.525588 59.039619 233.739131 59.6224603 235.118882 60.036127 237.853339 60.8565079 241.742142 60.9387778 245.239332 59.8947619 246.885471 59.4034603 248.374509 58.490381 249.66091 57.1810159 250.964388 55.8554286 251.995785 54.1602063 252.727782 52.1416984 253.249173 50.6144921 253.611187 48.9679365 253.799024 47.2646032 253.990277 45.5253492 254.087042 43.7362698 254.087042 41.9506667 254.087042 40.167381 253.983446 38.4014762 253.781948 36.6981429 253.581588 35.0156667 253.243481 33.3853333 252.77901 31.8511746 252.356661 30.5823651 251.768104 29.3842381 251.039522 28.3135714 250.321187 27.2614444 249.434367 26.353 248.400692 25.6125714 247.361325 24.8675079 246.134121 24.2800317 244.753232 23.8652063 243.35982 23.4480635 241.756941 23.2348571 239.987855 23.2348571 238.151602 23.2348571 236.338118 23.5002063 234.602045 24.0239524 232.935415 24.5245238 231.4441 25.4526667 230.169083 26.7817302 228.880405 28.1258571 227.88999 29.8373016 227.224021 31.870873 226.715152 33.4015556 226.35883 35.0179841 226.158471 36.6819206 225.956972 38.3713492 225.852239 40.1442063 225.852239 41.9506667 225.852239 43.7362698 225.956972 45.5207143 226.159609 47.2599683 226.35883 48.9690952 226.715152 50.6226032 227.224021 52.1706667zM231.321152 36.8140159C231.503298 35.374873 231.864173 33.9113968 232.392394 32.4653016 233.044702 30.6611587 234.080654 29.3367302 235.474066 28.5314127 238.175509 26.9752381 241.914042 27.0018889 244.477737 28.5395238 245.821059 29.3471587 246.830827 30.6947619 247.47972 32.5464127 247.916869 33.8743175 248.248145 35.2311905 248.47355 36.6008095 248.701232 37.9739048 248.815073 39.7965873 248.815073 42.0225079 248.815073 44.2217778 248.706924 46.0259206 248.492903 47.3839524 248.277744 48.7489365 247.93736 50.1069683 247.483135 51.4209683 246.797813 53.2401746 245.76983 54.5680794 244.412848 55.394254 243.095709 56.1960952 241.582765 56.6039683 239.918412 56.6039683 238.25292 56.6039683 236.743391 56.1960952 235.43536 55.3919365 234.093176 54.5657619 233.069747 53.2401746 232.396948 51.4464603 231.985983 50.387381 231.654706 49.0965556 231.413363 47.6168571 231.175436 46.1510635 231.055903 44.2704444 231.055903 42.0213492 231.054765 39.9727143 231.145837 38.2207143 231.321152 36.8140159zM263.567706 52.1706667C263.995747 53.4348413 264.574059 54.6109524 265.282149 55.6607619 265.976578 56.6897143 266.841768 57.579619 267.852675 58.3084603 268.868135 59.039619 270.082817 59.6224603 271.463706 60.036127 274.197024 60.8565079 278.085827 60.9387778 281.581879 59.8947619 283.230294 59.4034603 284.718194 58.490381 286.004595 57.1810159 287.306934 55.8554286 288.338332 54.1602063 289.071467 52.1416984 289.59172 50.6144921 289.953734 48.9679365 290.142709 47.2646032 290.332824 45.5253492 290.430727 43.7362698 290.430727 41.9506667 290.430727 40.167381 290.327131 38.4014762 290.125633 36.6981429 289.925273 35.0156667 289.588304 33.3853333 289.122696 31.8511746 288.700346 30.5823651 288.110651 29.3842381 287.382069 28.3135714 286.664872 27.2614444 285.776913 26.353 284.744377 25.6125714 283.703872 24.8675079 282.476668 24.2800317 281.096917 23.8652063 279.703505 23.4480635 278.099488 23.2348571 276.33154 23.2348571 274.495287 23.2348571 272.681803 23.5002063 270.944592 24.0239524 269.277962 24.5245238 267.786647 25.4526667 266.51163 26.7817302 265.222952 28.1258571 264.234813 29.8373016 263.567706 31.870873 263.059976 33.4015556 262.701377 35.0179841 262.501017 36.6819206 262.299519 38.3713492 262.195924 40.1442063 262.195924 41.9506667 262.195924 43.7362698 262.299519 45.5207143 262.503294 47.2599683 262.702516 48.9690952 263.061114 50.6226032 263.567706 52.1706667zM267.665976 36.8140159C267.848121 35.374873 268.210135 33.9113968 268.738356 32.4653016 269.389526 30.6611587 270.425478 29.3367302 271.820028 28.5314127 274.518055 26.9752381 278.25545 27.0018889 280.821422 28.5395238 282.164744 29.3471587 283.174512 30.6947619 283.824543 32.5464127 284.260554 33.8743175 284.592969 35.2311905 284.818374 36.6008095 285.044917 37.9739048 285.159896 39.7965873 285.159896 42.0225079 285.159896 44.2217778 285.051747 46.0259206 284.837727 47.3839524 284.622567 48.7489365 284.282183 50.1069683 283.82682 51.4209683 283.143775 53.2401746 282.113516 54.5680794 280.75881 55.394254 279.438256 56.1960952 277.927588 56.6039683 276.262097 56.6039683 274.596606 56.6039683 273.088215 56.1960952 271.780183 55.3919365 270.435723 54.5657619 269.413433 53.2401746 268.740633 51.4464603 268.329668 50.387381 267.997253 49.0965556 267.757048 47.6168571 267.519121 46.1510635 267.400727 44.2704444 267.400727 42.0213492 267.400727 39.9727143 267.489522 38.2207143 267.665976 36.8140159z"/>
      <path d="M74.6343355 73C76.0042856 73 77.9092121 72.9988351 79.6601475 72.4781055 80.7882747 72.1426018 81.9335119 71.3352962 83.0525136 70.0433742 84.218283 68.6978648 85.325878 66.642905 86.3433597 63.9332472L101.375169 23.7706658 96.4759717 23.7706658 86.2703565 51.3984584 76.5495281 23.7718307 71.4598382 23.7718307 83.6981354 58.3426848 81.9460593 63.0979829C81.4224897 64.5040693 80.6787699 65.7598781 79.7388541 66.8339557 78.6894335 68.0338472 77.1997126 68.6947084 75.3084742 68.6947084 75.0780579 68.6947084 65.7426566 68.722667 65.5190843 68.7098527L4.2641318 68.7098527 4.2641318 4.29067769 168.49264 4.29067769 168.49264 9.19140176 168.498344 29.467238 166.572071 27.1757947C165.570559 25.8267905 164.32152 24.7177646 162.860316 23.8778405 161.42877 23.0565556 159.584299 22.6395059 157.381656 22.6395059 155.012475 22.6395059 152.998044 23.0949987 151.390834 23.99084 149.81214 24.8703721 148.531162 26.2648091 147.586684 28.133378 146.755132 29.6745979 146.184795 31.5233627 145.880235 33.6517139 145.564268 35.8487968 145.403433 38.4256511 145.403433 41.3147102 145.403433 46.1329152 145.885938 49.9387846 146.837261 52.6286385 147.229653 53.8052311 147.74866 54.8664943 148.387437 55.8007788 149.019371 56.7269086 149.772216 57.5283895 150.62316 58.1842525 151.470681 58.8342908 152.455083 59.3503607 153.552412 59.7173178 154.652022 60.0842749 155.895357 60.2706658 157.242494 60.2706658 159.455403 60.2706658 161.364892 59.7767299 162.913928 58.8040023 164.494903 57.8103058 165.783865 56.5475073 166.740891 55.0470605L168.656897 52.4014745 168.760699 59.1033927 173.040836 59.1033927 173.040836 9.19140176 173.040836 8.83958892 173.040836 0 2.84217094e-14 0 2.84217094e-14 73 74.6343355 73zM167.627195 50.0086812C167.197161 51.2423561 166.578915 52.3210935 165.796412 53.212275 165.002503 54.115106 164.035211 54.8210615 162.919631 55.3126676 161.810896 55.7984489 160.590374 56.0442519 159.287723 56.0442519 156.98242 56.0442519 155.141371 55.3604302 153.82047 54.0090961 152.547478 52.7090195 151.685128 50.9289863 151.256234 48.7190891 151.065741 47.7952892 150.920876 46.5953977 150.825059 45.1636825 150.730383 43.7482765 150.684756 42.4645091 150.684756 41.3123803 150.684756 37.8012415 150.899203 35.2360366 151.337222 33.4676529 151.561935 32.6219041 151.895012 31.7190732 152.333031 30.7649847 152.824661 29.6897421 153.672183 28.7612824 154.85164 28.0029044 156.834132 26.7296215 159.588861 26.3533448 162.936741 27.6720605 164.379695 28.2393878 165.644703 29.3658879 166.698686 31.0189423 167.742403 32.6580174 168.49264 34.6570599 168.49264 36.9613175 168.49264 40.9441113 168.49264 43.9312066 168.49264 45.9226035 168.49264 47.4225073 168.056089 48.7889857 167.627195 50.0086812zM299.401384 3.29330919e-14L299.401384 59.0952381 303.955017 59.0952381 303.955017 4.63492063 324.446367 4.63492063 324.446367 68.3633997 194.669106 68.3633997 194.669106 53.5153951 196.836514 55.7654031C197.318945 56.4102507 197.981439 57.0933717 198.80814 57.7950494 199.59294 58.4654126 200.589511 59.0047186 201.766145 59.3990499 203.924628 60.1250834 207.070623 60.3408058 210.180378 59.3109053 211.517822 58.8690223 212.729563 58.0791999 213.786155 56.9669537 214.858602 55.8361507 215.714747 54.3922023 216.330809 52.6733818 216.832492 51.3082997 217.207339 49.6776238 217.45082 47.8219472 217.696565 45.934956 217.821136 43.684948 217.821136 41.1310731 217.821136 38.255934 217.660326 35.702059 217.35003 33.5390359 217.043131 31.4293635 216.506342 29.5620889 215.749853 27.9928823 213.939038 24.3256013 210.8055 22.5395126 206.170311 22.5395126 203.898581 22.5395126 201.968857 23.0115503 200.437761 23.9393886 198.891942 24.8765054 197.625844 26.1383655 196.680233 27.6901751L194.580773 30.3368339 194.324835 23.6679959 190.114187 23.6679959 190.114187 68.1891583 190.114187 72.6880144 190.114187 73 329 73 329 0 299.401384 3.29330919e-14zM195.406342 32.4743415C195.898965 31.2229195 197.04602 30.1559054 197.863662 29.3057736 198.689231 28.4452035 199.665418 27.7957167 200.763911 27.3712307 202.992607 26.5118204 205.49536 26.5500937 207.548524 27.4384989 208.656077 27.9163357 209.576773 28.6655651 210.284565 29.6618315 210.958383 30.6128658 211.489511 31.8422516 211.86096 33.3151949 212.124825 34.37641 212.313947 35.5907184 212.420399 36.930285 212.526851 38.2420165 212.580077 39.6558101 212.580077 41.1310731 212.580077 42.279273 212.526851 43.5608497 212.422664 44.9746433 212.31508 46.3872772 212.179183 47.5714308 212.014976 48.4923104 211.586903 50.7318801 210.721698 52.5121699 209.443142 53.7960662 208.12042 55.1251946 206.28016 55.7967176 203.969927 55.7967176 202.675516 55.7967176 201.467173 55.5520003 200.37774 55.0660449 199.280379 54.57777 198.331371 53.8726129 197.554498 52.9702901 196.790083 52.0818849 195.706446 51.0067522 195.288565 49.7785263 194.878612 48.5665374 194.670238 47.2095739 194.670238 45.7470687L194.670238 36.7980681C194.669106 35.1789902 194.917116 33.7234438 195.406342 32.4743415z"/>
    </g>
  </g>
</svg>
